<svg fill="none" viewBox="0 0 245 240" xmlns="http://www.w3.org/2000/svg"><path d="m116.5 224c-60.46 0-109.5-48.85-109.5-109.08.15-60.22 49.2-108.92 109.5-108.92 60.46 0 109.5 48.85 109.5 109.08 0 60.07-49.04 108.92-109.5 108.92z" fill="#4c86b7"/><path d="m206.52 224.13c-10.16.25-23.63-21.34-18.17-23.75 5.47-2.41 42.93-5.08 47-5.08" fill="#ffc5c7"/><path d="m156.35 225.4c-8.77-3.94 2.66-65.27 8.13-64.26 5.46 1.02 17.27 12.83 27.18 18.54 9.78 5.59 26.67 13.46 26.67 13.46-4.45 26.16-14.99 46.48-18.3 46.73" fill="#fff"/><path d="m224.68 205.71c-11.18-2.66-29.47-27.8-37.6-39.1s-23.24-31.63-26.41-33.4c-3.18-1.78-10.3-2.8-16.51-12.96-6.1-10.16 1.9-31.62 4.82-34.15 2.92-2.54 27.82 5.96 30.74 10.28s-2.03 27.3-1.15 30.22c.9 2.92 22.1 26.54 31.38 32.38 9.27 5.84 34.8 30.23 34.92 37.72" fill="#ffc5c7"/><path d="m161.94 103.11c-2.93-1.4-3.69-8-1.78-6.86 1.9 1.15 5.08 1.15 9.4 1.02 4.31 0 6.1-.38 6.1-.38s.5 2.8.37 5.2c.13 0-11.17 2.42-14.1 1.02zm58.8 100.95c-11.18-6.47-26.29-27.3-33.53-37.46-8.13-11.42-23.24-31.62-26.42-33.4-3.17-1.77-10.28-2.79-16.5-12.95-2.42-4.06-2.67-9.9-1.79-15.61 1.78-3.3 3.18-5.85 3.18-5.85l17.14 16.51c4.7-4.06 10.42-7.74 10.42-7.74l1.52 2.66c-2.79 4.7-5.2 14.6-5.2 17.02 0 0-2.67 2.92-4.07 3.17 0 0 18.3 29.08 30.1 43.3 11.56 14.1 19.69 26.42 25.15 30.35z" fill="#fe8a8b"/><path d="m178.2 106.29c-.26 1.65-17.28 16.38-19.06 18.15-.13.13-1.52.39-1.78 0-4.57-3.93-24.26-39.87-24.64-41.14s12.83-13.59 16.77-16.89c.5-.5 2.8-.12 3.17.38 4.07 5.97 25.79 37.21 25.53 39.5z" fill="#0c0835"/><path d="m176.41 106.29c-.25 1.65-17.27 16.38-19.05 18.15-1.77 1.66-26.03-39.74-26.41-41.14-.38-1.27 14.22-13.33 18.29-16.63.5-.51 1.26-.38 1.65.12 3.93 5.97 25.78 37.21 25.53 39.5z" fill="#252384"/><path d="m173.5 103.87c-.26 1.53-16.14 15.37-17.79 17.02-1.65 1.52-24.38-37.2-24.76-38.48-.26-1.14 13.33-12.44 17.14-15.62.51-.38 1.27-.38 1.53.13 3.8 5.59 24.13 34.8 23.87 36.95z" fill="#57aff7"/><path d="m163.33 83.56c-2.66-1.66-5.84-6.99-6.22-8.77-.38-1.77-.13-3.42 1.27-3.8 1.4-.39 5.84 5.33 8 6.98s4.83 5.2 3.69 7.62c-1.02 2.41-5.97 1.4-6.48 1.14-.38-.38-.26-3.17-.26-3.17z" fill="#ffc5c7"/><path d="m157.62 71.5c-.9 2.02 4.57 10.28 9.4 12.7l-1.78 2.02s-.76-.12-1.78-.38c-.13-.89-.13-2.16-.13-2.16-2.66-1.65-5.84-6.98-6.22-8.76-.25-1.52-.13-2.8.5-3.43z" fill="#fe8a8b"/><path d="m169.43 91.94c-4.57-2.42-8.13-2.16-10.54-3.18-2.41-1.01-2.92-4.82-1.27-5.46 1.65-.63 11.94 1.02 14.48 2.16 2.66 1.14 3.93 6.6 3.93 6.6z" fill="#ffc5c7"/><path d="m167.4 89.14c2.54.51 3.43 0 3.43 0-.13 1.02.89 1.53 1.9 2.92l-3.43-.12c-4.57-2.42-8.13-2.16-10.54-3.18a3.67 3.67 0 0 1 -2.03-2.54c1.14 2.16 8.13 2.41 10.67 2.92z" fill="#fe8a8b"/><path d="m179.84 96.25c-2.4 3.3-14.22 1.9-16.63 1.53-2.42-.38-3.94-1.9-3.69-3.43.51-3.05 16.13-2.54 17.53-2.03 1.27.5 2.8 3.93 2.8 3.93z" fill="#ffc5c7"/><path d="m159.65 95.11c1.65 1.65 5.46 2.54 9.78 2.92 3.68.26 5.84.13 6.35.13-4.44.76-10.8-.13-12.45-.38-2.16-.38-3.43-1.4-3.68-2.67z" fill="#fe8a8b"/><path d="m60.33 221.84c-1.65-14.1-17.02-53.2-14.23-60.32 2.93-7.1 29.72-15.1 47.89-24.25 18.29-9.14 30.23 5.84 30.23 5.84 25.14 12.83 29.33 12.32 40.13 18.16s7.62 66.92 6.86 76.44" fill="#fff"/><path d="m149.36 158.98a70.33 70.33 0 0 1 -23.88 34.67c-13.59-3.3-27.56-9.4-38.73-17.9 12.44 9.14 26.03 16.88 40.64 22.22 12.45-10.03 19.69-23.24 21.97-38.99z" fill="#dcedff"/><path d="m144.16 152.5a317.14 317.14 0 0 1 -19.82-9.39s-11.94-14.86-30.23-5.84a282.41 282.41 0 0 1 -20.7 9.02c10.92 18.4 28.45 32.89 48.77 39.74 10.8-8.25 18.42-20.32 21.97-33.52z" fill="#ffc5c7"/><path d="m97.03 111.5c-.25 15.1-1.27 25.52-4.57 28.44 0 0 5.72 25.14 28.83 22.98 7.75-.76 7.12-13.84 3.18-19.8l2.28-18.55-29.72-13.08z" fill="#ffc5c7"/><path d="m94.11 137.27c2.04-4.7 2.67-13.71 2.92-25.78l29.6 12.95-1.53 11.94c-5.2 2.41-30.99.89-30.99.89z" fill="#fe8a8b"/><path d="m63.76 223.37c6.98-13.6 9.65-35.81 3.43-47.37-6.23-11.68-18.04-15.87-20.96-14.48-2.92 1.4-10.8 19.56-18.16 27.94-7.37 8.38-27.43 31.87-28.07 33.9" fill="#fff"/><path d="m128.4 112.89c-1.52-6.22-1.52-12.57-1.9-19.05-.25-4.82-.5-9.14-4.83-11.94-3.17-2.03-7.1-2.53-10.8-2.03-10.03 1.27-12.18 11.05-11.42 20.2.63 7.1 3.3 13.84 6.1 20.31-3.69-.13-8.77-2.03-10.93-5.2 1.02 4.06 2.8 7.74 5.84 10.53-10.66-.12-20.57-7.1-26.16-16.5s-7.5-20.83-6.86-31.88c.76-13.08 4.83-26.16 12.96-36.31 16.25-20.32 47.63-22.6 66.8-5.21 6.6 5.97 11.3 13.97 13.72 22.73 3.18 11.43 3.05 23.75.64 35.3a101.7 101.7 0 0 0 -1.91 13.72c-.13 1.52-1.9 18.79-.89 18.66-6.73.38-14.48-.89-19.05-6.1 2.03 3.56 3.81 7 5.84 10.55-8.76-1.15-15.11-9.15-17.14-17.78z" fill="#372d5b"/><path d="m93.35 89.4c-3.05-1.78-6.6-2.8-9.4.12-4.06 4.2 1.78 23.62 10.54 18.92 0 0 12.83 17.9 22.23 22.99 9.4 5.08 16.13 2.54 19.69-1.14 3.55-3.69 15.62-18.54 17.78-34.29.76-5.59 0-16.63.13-19.05.5-7.24 3.3-13.2-2.42-18.92a33.4 33.4 0 0 0 -21.97-9.52 35.04 35.04 0 0 0 -27.3 11.93c-7.5 8.51-8.77 18.16-9.28 28.96z" fill="#ffc5c7"/><path d="m85.48 94.73c.76-3.56 3.8-4.32 6.1-1.78 2.28 2.54 2.66 10.54 2.15 11.81-.63 1.14-4.57 1.14-5.33-1.4-.76-2.4 1.52-3.93 3.8-3.3 0 0 .64-3.55-1.13-5.84-1.78-2.28-3.69-1.4-4.2-.89l-1.4 1.4z" fill="#fe8a8b"/><path d="m109.99 78.98 2.67-2.28a37.82 37.82 0 0 1 3.05-1.78c1.14-.5 2.15-1.02 3.42-1.14 1.15-.13 2.42 0 3.43.5v.13c-.63.26-1.14.38-1.65.51l-1.52.5c-1.02.26-2.16.39-3.18.77-1.01.38-2.03.76-3.04 1.27-1.02.5-2.04 1.14-3.05 1.65zm40.13-4.06a13.84 13.84 0 0 0 -6.35-1.52c-1.14 0-2.16.25-3.3.25s-2.16 0-3.43-.13v-.12a8.18 8.18 0 0 1 3.43-1.4c1.15-.25 2.41 0 3.56.13 1.14.12 2.28.5 3.3.89 1.02.5 2.03 1.01 2.92 1.77zm-29.34 10.41c0-1.52-.76-2.66-1.77-2.66-.9.12-1.65 1.4-1.53 2.92 0 1.52.77 2.66 1.78 2.66.89 0 1.52-1.27 1.52-2.92zm24.26-1.9c0-1.53-.63-2.67-1.4-2.67-.75.13-1.26 1.4-1.26 2.92 0 1.53.63 2.67 1.4 2.67.63 0 1.26-1.4 1.26-2.92z" fill="#3f1751"/><path d="m128.28 100.32a6.96 6.96 0 0 0 7.5-.13c-.26 1.14-.77 2.29-1.91 2.8a5.26 5.26 0 0 1 -3.43-.13c-1.15-.51-1.4-1.65-2.16-2.54z" fill="#fe8a8b"/><path d="m119.9 109.33c5.08.13 17.27-.89 21.2-1.4-1.52 5.09-5.7 10.16-11.42 10.16-5.08 0-8.51-4.19-9.78-8.76z" fill="#c31f2a"/><path d="m124.6 116.44a8.6 8.6 0 0 1 4.82 0s2.67-1.9 6.6-.63a10.33 10.33 0 0 1 -6.34 2.41 9.78 9.78 0 0 1 -5.09-1.78z" fill="#fb8384"/><path d="m137.68 112.13c-5.08 1.65-10.67 1.14-15.5-.64 0-.76-.13-1.52-.13-2.28 4.96-.13 13.09-.77 17.4-1.15-.38 1.4-1.01 2.8-1.77 4.07z" fill="#fff"/><path d="m98.43 72.63a70.89 70.89 0 0 0 24-5.33c1.4-3.3 1.53-6.35 1.78-10.03 2.04 3.8 3.3 8 3.56 12.44 4.83-.25 9.65-.5 14.48-.88 1.4-3.81 1.52-7.75 1.27-11.81 1.65 3.8 2.41 8.5 3.05 12.7 2.92-1.02 6.6.5 9.65 1.01 3.81-8.38 3.56-23.5-4.44-29.84-7.75-6.22-21.22-7.87-30.61-6.48-20.2 2.92-36.07 19.56-34.8 40.38.76 11.81 6.6 23.11 15.24 31.37-5.08-10.16-6.1-22.6-3.18-33.53z" fill="#372d5b"/></svg>