<svg viewBox="0 0 100 100" xmlns="http://www.w3.org/2000/svg" fill-rule="evenodd" clip-rule="evenodd" stroke-linejoin="round" stroke-miterlimit="2">
    <g transform="matrix(2.17391 0 0 2.04082 -2547.826 -500)">
        <path fill="none" d="M1172 245h46v49h-46z"/>
        <clipPath id="a">
            <path d="M1172 245h46v49h-46z"/>
        </clipPath>
        <g clip-path="url(#a)">
            <path d="M1212.464 277.387c-1.7-1.809-4.431-2.012-6.3-.517l-4.31 2.94c-.02.008-2.79 1.176-10.23-6.718-7.357-7.87-6.333-10.831-6.345-10.831l2.76-4.607c1.443-2.045 1.249-4.954-.449-6.762l-4.109-4.377a4.708 4.708 0 00-3.778-1.504c-1.405.107-2.697.856-3.542 2.058-.014.02-.029.044-.042.067l-2.065 3.612c-.343.498-8.178 12.45 9.193 31.09.004.002.164.171.166.173 9.108 9.635 16.516 11.99 21.582 11.99 4.667 0 7.35-2.001 7.55-2.156l3.507-2.282c1.128-.902 1.833-2.276 1.932-3.775.098-1.497-.416-2.962-1.41-4.023l-4.11-4.378zM1206.315 267.657a.772.772 0 00.562.248.773.773 0 00.563-.248c2.864-3.052 2.864-8.018 0-11.071-2.774-2.956-7.615-2.956-10.394 0a.892.892 0 000 1.2c.313.329.814.329 1.126 0 2.176-2.318 5.968-2.318 8.143 0 2.244 2.392 2.244 6.281 0 8.672a.892.892 0 000 1.2z" fill="#fff" fill-rule="nonzero"/>
            <path d="M1209.82 271.041a.778.778 0 00.564-.247c4.488-4.783 4.488-12.563 0-17.344-4.488-4.781-11.792-4.778-16.28 0a.888.888 0 000 1.2c.312.329.813.329 1.124 0 1.873-1.998 4.366-3.096 7.015-3.096 2.65 0 5.143 1.098 7.015 3.095 3.868 4.12 3.868 10.824 0 14.945a.892.892 0 000 1.2c.157.163.359.247.563.247z" fill="#fff" fill-rule="nonzero"/>
            <path d="M1192.23 251.456c2.676-2.85 6.232-4.418 10.015-4.418 3.783 0 7.339 1.568 10.014 4.418 5.52 5.881 5.52 15.45 0 21.333a.886.886 0 000 1.198.765.765 0 001.124 0c6.141-6.543 6.141-17.187 0-23.73-2.976-3.169-6.93-4.913-11.138-4.913-4.21 0-8.166 1.744-11.14 4.912a.888.888 0 000 1.2c.313.33.813.33 1.125 0z" fill="#fff" fill-rule="nonzero"/>
        </g>
    </g>
</svg>
