<svg fill="none" xmlns="http://www.w3.org/2000/svg" viewBox="0 0 48 48">
  <path fill-rule="evenodd" clip-rule="evenodd" d="M24 0C10.72 0 0 10.72 0 24s10.72 24 24 24A23.97 23.97 0 0 0 40.96 7.04 24.06 24.06 0 0 0 24 0Z" fill="#F5841F"/>
  <g clip-path="url(#a)" fill="#fff">
    <path d="M38 21.75v.36a.91.91 0 0 1-1.37.77.9.9 0 0 1-.48-.78c-.02-.38-.02-.76-.06-1.13a9.5 9.5 0 0 0-1.8-4.75 10.26 10.26 0 0 0-8.36-4.35.92.92 0 0 1-.88-.6.93.93 0 0 1 .54-1.2c.15-.05.28-.07.43-.07a12.52 12.52 0 0 1 5.81 1.56 12.35 12.35 0 0 1 4.4 4.22 11.9 11.9 0 0 1 1.7 5.03c.04.32.07.63.07.94Z"/>
    <path d="M33.43 21.96c.01.16 0 .41-.15.64a.93.93 0 0 1-1.59-.08.9.9 0 0 1-.1-.42 5.77 5.77 0 0 0-1.15-3.42 5.9 5.9 0 0 0-1.82-1.56 5.8 5.8 0 0 0-2.27-.67c-.22-.02-.43 0-.65-.05a.92.92 0 0 1-.53-1.42.9.9 0 0 1 .77-.4 7.46 7.46 0 0 1 6.9 4.56 6.82 6.82 0 0 1 .6 2.82Zm-7.38-2.7a2.8 2.8 0 0 1 2.16 1.18c.36.48.53 1.03.54 1.62 0 .4-.23.76-.58.89-.4.14-.8.04-1.07-.28a.89.89 0 0 1-.2-.6.99.99 0 0 0-.93-.96.94.94 0 0 1-.7-.28.9.9 0 0 1-.2-1.01.89.89 0 0 1 .8-.56h.18Zm7.89 12.95a4.67 4.67 0 0 0-1.05-1.8 8.17 8.17 0 0 0-3-2.14 4.12 4.12 0 0 0-1.87-.31c-.51.03-.97.22-1.38.52-.42.31-.71.73-1 1.15-.18.24-.33.48-.55.68-.12.12-.2.14-.35.05a18.88 18.88 0 0 1-2.57-1.65 15.63 15.63 0 0 1-3.62-3.92 29.5 29.5 0 0 1-.92-1.53c-.09-.16-.08-.24.05-.37.2-.21.45-.37.68-.54.41-.3.83-.58 1.14-1 .3-.4.49-.86.54-1.37a4.32 4.32 0 0 0-.4-2.09c-.4-.9-.96-1.69-1.65-2.39a5.22 5.22 0 0 0-2.08-1.4 3.03 3.03 0 0 0-1.86-.04c-.62.19-1.13.55-1.58 1-.33.33-.64.69-.92 1.06a7.7 7.7 0 0 0-1.16 2.12 5.6 5.6 0 0 0-.32 1.34c-.04.16-.03.33-.07.49a8.23 8.23 0 0 0 .8 3.86c.4.9.91 1.74 1.48 2.54.6.84 1.25 1.63 1.94 2.4.36.42.74.84 1.13 1.24.54.55 1.05 1.13 1.62 1.66.76.71 1.5 1.43 2.29 2.12.45.39.9.77 1.37 1.14.57.46 1.17.89 1.8 1.28.75.47 1.55.86 2.39 1.17.68.25 1.4.4 2.11.49a7.52 7.52 0 0 0 5.62-2.1c.44-.38.83-.79 1.11-1.3.43-.74.52-1.53.28-2.36Zm-2.02 1.66a6.46 6.46 0 0 1-2.74 1.96c-.82.3-1.68.36-2.54.22a8.14 8.14 0 0 1-2.4-.84c-.68-.35-1.3-.76-1.92-1.21a30.04 30.04 0 0 1-3.2-2.75c-.41-.38-.84-.75-1.23-1.15l-1.39-1.46c-.42-.45-.84-.91-1.24-1.38-.7-.8-1.35-1.63-1.93-2.52a13.66 13.66 0 0 1-.9-1.66l-.01-.05-.1-.25a7.08 7.08 0 0 1-.44-1.82 5.06 5.06 0 0 1 .1-1.58v-.02c.03-.06.02-.12.06-.17l.12-.36c.17-.5.43-.97.73-1.4.3-.41.63-.8 1-1.15.3-.28.63-.5 1.07-.48.34 0 .64.15.92.34.4.25.73.57 1.03.93a5.6 5.6 0 0 1 1.21 2.08c.08.3.12.6.01.9-.1.27-.33.43-.55.6-.41.3-.85.57-1.22.95a2.07 2.07 0 0 0-.42 2.43c.22.45.5.88.76 1.31a20.97 20.97 0 0 0 1.47 2.08A18.27 18.27 0 0 0 23.85 32c.65.35 1.32.39 1.99.06.38-.2.67-.48.92-.82.27-.36.52-.73.8-1.07.27-.35.66-.42 1.07-.34.54.1 1.04.36 1.5.66.5.32.95.7 1.35 1.13.24.27.45.56.6.9.23.49.16.95-.16 1.36Z"/>
  </g>
  <defs>
    <clipPath id="a">
      <path fill="#fff" transform="translate(10 10)" d="M0 0h28v28H0z"/>
    </clipPath>
  </defs>
</svg>
