<svg width="1240" height="722" viewBox="0 0 1240 722" fill="none" xmlns="http://www.w3.org/2000/svg">
<path d="M496.175 17.0475L506.221 35.0013H483.106L492.866 17.0475H496.175ZM450.888 56.8708H471.063L476.336 47.0248H512.974L518.6 56.8708H538.708L506.304 1.12207H482.771L450.904 56.8708H450.888Z" fill="white"/>
<path d="M194.201 41.9675C194.201 54.0577 200.784 56.9886 217.229 56.9886H239.134C263.156 56.9886 268.513 54.5109 268.513 39.4879C268.513 23.2447 261.996 21.6203 233.928 21.7047C214.559 21.7714 212.358 21.636 212.358 16.7807C212.358 13.7655 215.13 12.4767 219.213 12.4767H239.234C247.517 12.4767 248.021 14.1677 248.021 18.254H266.061V16.4963C266.061 6.71503 264.129 0 243.283 0H218.053C195.258 0 194.285 7.7881 194.285 17.8695C194.285 31.584 197.375 34.6659 224.555 34.6659C247.837 34.6659 249.951 34.968 249.951 39.8233C249.951 44.145 246.038 44.5296 242.208 44.5296H220.068C214.862 44.5296 212.343 44.0607 212.258 38.1323H194.201V41.9832V41.9675Z" fill="white"/>
<path d="M283.379 56.9395H301.437V35.839H339.536V56.9395H357.627V1.1731H339.536V21.0514H301.437V1.1731H283.379V56.9395Z" fill="white"/>
<path d="M373.886 37.0768C373.886 50.9267 381.462 57.575 398.043 57.575H423.928C440.54 57.575 448.083 50.9267 448.083 37.0768V1.18872H430.025V33.3927C430.025 40.4608 427.353 43.2406 419.93 43.2406H402.023C394.598 43.2406 391.928 40.4608 391.928 33.3927V1.18872H373.87V37.0768H373.886Z" fill="white"/>
<path d="M146.595 17.0475L156.64 35.0013H133.526L143.286 17.0475H146.612H146.595ZM101.291 56.8708H121.482L126.757 47.0248H163.376L169.003 56.8708H189.094L156.707 1.12207H133.19L101.291 56.8708Z" fill="white"/>
<path d="M73.4233 39.4054L41.373 1.1731H13.3878V56.9395H31.4454V18.5894H33.4613L65.5452 56.9395H93.5473V1.1731H75.4728V39.4054H73.4233Z" fill="white"/>
<path d="M676.198 56.8708L643.794 1.12207H680.532L712.918 56.8708H676.198Z" fill="#ED1C24"/>
<path d="M558.831 56.8708L526.445 1.12207H539.698L572.102 56.8708H558.831Z" fill="#ED1C24"/>
<path d="M581.66 56.8708L549.274 1.12207H565.03L597.399 56.8708H581.66Z" fill="#ED1C24"/>
<path d="M607.023 56.8708L574.621 1.12207H595.904L628.306 56.8708H607.023Z" fill="#ED1C24"/>
<path d="M637.915 56.8708L605.528 1.12207H634.203L666.572 56.8708H637.915Z" fill="#ED1C24"/>
<path d="M432.124 330.145C432.124 389.429 411.128 440.138 369.15 482.306C327.156 524.473 276.14 545.54 216.07 545.54C156.002 545.54 105.743 524.458 63.4454 482.306C21.1485 440.138 0 389.429 0 330.145C0 270.861 21.1485 219.23 63.4454 177.081C105.743 134.911 156.607 113.828 216.07 113.828C275.536 113.828 327.156 134.911 369.15 177.081C411.128 219.248 432.124 270.275 432.124 330.145ZM319.042 330.145C319.042 301.423 308.929 277.141 288.705 257.28C268.48 237.435 244.258 227.487 216.07 227.487C187.884 227.487 163.813 237.418 143.891 257.28C123.968 277.141 114.007 301.441 114.007 330.145C114.007 358.849 123.968 382.243 143.891 402.088C163.796 421.951 187.868 431.881 216.07 431.881C244.274 431.881 268.48 421.951 288.705 402.088C308.929 382.243 319.042 358.245 319.042 330.145Z" fill="white"/>
<path d="M714.211 232.076H636.991V541.874H520.23L521.154 232.076H445.764V116.59L521.154 117.512H636.991L714.211 116.59V232.076Z" fill="white"/>
<path d="M1173.04 544.938H1056.28V520.807C1025.02 537.301 991.611 545.558 956.068 545.558C895.997 545.558 844.662 524.34 802.063 481.852C759.448 439.383 738.166 388.222 738.166 328.319C738.166 268.417 759.448 217.272 802.063 174.785C844.662 132.315 895.982 111.082 956.068 111.082C1016.15 111.082 1066.4 132.164 1108.69 174.334L1025.94 252.239C1006.33 234.52 983.028 225.663 956.068 225.663C927.258 225.663 902.75 235.609 882.508 255.454C862.285 275.316 852.172 299.615 852.172 328.319C852.172 357.023 862.285 380.57 882.508 400.732C902.734 420.895 927.242 430.977 956.068 430.977C984.892 430.977 1008.48 420.895 1028.7 400.732C1048.92 380.57 1059.04 356.436 1059.04 328.319H1173.04V544.938Z" fill="white"/>
<path d="M1172.52 287.524H952.254V404.166H1172.52V287.524Z" fill="white"/>
<path d="M1054.77 287.491L1122.33 403.746H1240L1172.46 287.491H1054.77Z" fill="#ED1C24"/>
<path d="M564.909 667.364C558.091 667.364 552.182 665.864 547.182 662.864C542.182 659.864 538.303 655.667 535.545 650.273C532.818 644.879 531.455 638.576 531.455 631.364C531.455 624.152 532.818 617.833 535.545 612.409C538.303 606.985 542.182 602.773 547.182 599.773C552.182 596.773 558.091 595.273 564.909 595.273C571.727 595.273 577.636 596.773 582.636 599.773C587.636 602.773 591.5 606.985 594.227 612.409C596.985 617.833 598.364 624.152 598.364 631.364C598.364 638.576 596.985 644.879 594.227 650.273C591.5 655.667 587.636 659.864 582.636 662.864C577.636 665.864 571.727 667.364 564.909 667.364ZM565 654.182C568.697 654.182 571.788 653.167 574.273 651.136C576.758 649.076 578.606 646.318 579.818 642.864C581.061 639.409 581.682 635.561 581.682 631.318C581.682 627.045 581.061 623.182 579.818 619.727C578.606 616.242 576.758 613.47 574.273 611.409C571.788 609.348 568.697 608.318 565 608.318C561.212 608.318 558.061 609.348 555.545 611.409C553.061 613.47 551.197 616.242 549.955 619.727C548.742 623.182 548.136 627.045 548.136 631.318C548.136 635.561 548.742 639.409 549.955 642.864C551.197 646.318 553.061 649.076 555.545 651.136C558.061 653.167 561.212 654.182 565 654.182ZM628.784 625.091V666H612.33V596.182H628.057V608.045H628.875C630.481 604.136 633.042 601.03 636.557 598.727C640.102 596.424 644.481 595.273 649.693 595.273C654.511 595.273 658.708 596.303 662.284 598.364C665.89 600.424 668.678 603.409 670.648 607.318C672.648 611.227 673.633 615.97 673.602 621.545V666H657.148V624.091C657.148 619.424 655.936 615.773 653.511 613.136C651.117 610.5 647.799 609.182 643.557 609.182C640.678 609.182 638.117 609.818 635.875 611.091C633.663 612.333 631.92 614.136 630.648 616.5C629.405 618.864 628.784 621.727 628.784 625.091ZM732.648 620.455V634H690.739V620.455H732.648ZM784.818 596.182V608.909H744.682V596.182H784.818ZM754.591 579.455H771.045V645C771.045 647.212 771.379 648.909 772.045 650.091C772.742 651.242 773.652 652.03 774.773 652.455C775.894 652.879 777.136 653.091 778.5 653.091C779.53 653.091 780.47 653.015 781.318 652.864C782.197 652.712 782.864 652.576 783.318 652.455L786.091 665.318C785.212 665.621 783.955 665.955 782.318 666.318C780.712 666.682 778.742 666.894 776.409 666.955C772.288 667.076 768.576 666.455 765.273 665.091C761.97 663.697 759.348 661.545 757.409 658.636C755.5 655.727 754.561 652.091 754.591 647.727V579.455ZM816.534 625.091V666H800.08V572.909H816.17V608.045H816.989C818.625 604.106 821.155 601 824.58 598.727C828.034 596.424 832.428 595.273 837.761 595.273C842.61 595.273 846.837 596.288 850.443 598.318C854.049 600.348 856.837 603.318 858.807 607.227C860.807 611.136 861.807 615.909 861.807 621.545V666H845.352V624.091C845.352 619.394 844.14 615.742 841.716 613.136C839.322 610.5 835.958 609.182 831.625 609.182C828.716 609.182 826.11 609.818 823.807 611.091C821.534 612.333 819.746 614.136 818.443 616.5C817.17 618.864 816.534 621.727 816.534 625.091ZM909.489 667.364C902.489 667.364 896.443 665.909 891.352 663C886.292 660.061 882.398 655.909 879.67 650.545C876.943 645.152 875.58 638.803 875.58 631.5C875.58 624.318 876.943 618.015 879.67 612.591C882.428 607.136 886.277 602.894 891.216 599.864C896.155 596.803 901.958 595.273 908.625 595.273C912.928 595.273 916.989 595.97 920.807 597.364C924.655 598.727 928.049 600.848 930.989 603.727C933.958 606.606 936.292 610.273 937.989 614.727C939.686 619.152 940.534 624.424 940.534 630.545V635.591H883.307V624.5H924.761C924.731 621.348 924.049 618.545 922.716 616.091C921.383 613.606 919.519 611.652 917.125 610.227C914.761 608.803 912.004 608.091 908.852 608.091C905.489 608.091 902.534 608.909 899.989 610.545C897.443 612.152 895.458 614.273 894.034 616.909C892.64 619.515 891.928 622.379 891.898 625.5V635.182C891.898 639.242 892.64 642.727 894.125 645.636C895.61 648.515 897.686 650.727 900.352 652.273C903.019 653.788 906.14 654.545 909.716 654.545C912.11 654.545 914.277 654.212 916.216 653.545C918.155 652.848 919.837 651.833 921.261 650.5C922.686 649.167 923.761 647.515 924.489 645.545L939.852 647.273C938.883 651.333 937.034 654.879 934.307 657.909C931.61 660.909 928.155 663.242 923.943 664.909C919.731 666.545 914.913 667.364 909.489 667.364ZM996.773 620.455V634H954.864V620.455H996.773ZM1044.44 693.636C1038.53 693.636 1033.46 692.833 1029.22 691.227C1024.97 689.652 1021.56 687.53 1018.99 684.864C1016.41 682.197 1014.62 679.242 1013.62 676L1028.44 672.409C1029.11 673.773 1030.08 675.121 1031.35 676.455C1032.63 677.818 1034.34 678.939 1036.49 679.818C1038.67 680.727 1041.41 681.182 1044.72 681.182C1049.38 681.182 1053.25 680.045 1056.31 677.773C1059.37 675.53 1060.9 671.833 1060.9 666.682V653.455H1060.08C1059.23 655.152 1057.99 656.894 1056.35 658.682C1054.75 660.47 1052.61 661.97 1049.94 663.182C1047.31 664.394 1043.99 665 1039.99 665C1034.62 665 1029.76 663.742 1025.4 661.227C1021.06 658.682 1017.61 654.894 1015.03 649.864C1012.49 644.803 1011.22 638.47 1011.22 630.864C1011.22 623.197 1012.49 616.727 1015.03 611.455C1017.61 606.152 1021.08 602.136 1025.44 599.409C1029.81 596.652 1034.67 595.273 1040.03 595.273C1044.13 595.273 1047.49 595.97 1050.12 597.364C1052.79 598.727 1054.91 600.379 1056.49 602.318C1058.06 604.227 1059.26 606.03 1060.08 607.727H1060.99V596.182H1077.22V667.136C1077.22 673.106 1075.79 678.045 1072.94 681.955C1070.09 685.864 1066.2 688.788 1061.26 690.727C1056.32 692.667 1050.72 693.636 1044.44 693.636ZM1044.58 652.091C1048.06 652.091 1051.03 651.242 1053.49 649.545C1055.94 647.848 1057.81 645.409 1059.08 642.227C1060.35 639.045 1060.99 635.227 1060.99 630.773C1060.99 626.379 1060.35 622.53 1059.08 619.227C1057.84 615.924 1055.99 613.364 1053.53 611.545C1051.11 609.697 1048.13 608.773 1044.58 608.773C1040.91 608.773 1037.85 609.727 1035.4 611.636C1032.94 613.545 1031.09 616.167 1029.85 619.5C1028.61 622.803 1027.99 626.561 1027.99 630.773C1027.99 635.045 1028.61 638.788 1029.85 642C1031.13 645.182 1032.99 647.667 1035.44 649.455C1037.93 651.212 1040.97 652.091 1044.58 652.091ZM1124.53 667.364C1117.72 667.364 1111.81 665.864 1106.81 662.864C1101.81 659.864 1097.93 655.667 1095.17 650.273C1092.44 644.879 1091.08 638.576 1091.08 631.364C1091.08 624.152 1092.44 617.833 1095.17 612.409C1097.93 606.985 1101.81 602.773 1106.81 599.773C1111.81 596.773 1117.72 595.273 1124.53 595.273C1131.35 595.273 1137.26 596.773 1142.26 599.773C1147.26 602.773 1151.13 606.985 1153.85 612.409C1156.61 617.833 1157.99 624.152 1157.99 631.364C1157.99 638.576 1156.61 644.879 1153.85 650.273C1151.13 655.667 1147.26 659.864 1142.26 662.864C1137.26 665.864 1131.35 667.364 1124.53 667.364ZM1124.62 654.182C1128.32 654.182 1131.41 653.167 1133.9 651.136C1136.38 649.076 1138.23 646.318 1139.44 642.864C1140.69 639.409 1141.31 635.561 1141.31 631.318C1141.31 627.045 1140.69 623.182 1139.44 619.727C1138.23 616.242 1136.38 613.47 1133.9 611.409C1131.41 609.348 1128.32 608.318 1124.62 608.318C1120.84 608.318 1117.69 609.348 1115.17 611.409C1112.69 613.47 1110.82 616.242 1109.58 619.727C1108.37 623.182 1107.76 627.045 1107.76 631.318C1107.76 635.561 1108.37 639.409 1109.58 642.864C1110.82 646.318 1112.69 649.076 1115.17 651.136C1117.69 653.167 1120.84 654.182 1124.62 654.182Z" fill="white"/>
</svg>
