<svg width="489" height="371" viewBox="0 0 489 371" fill="none" xmlns="http://www.w3.org/2000/svg">
<path d="M174.978 287.877H94.4255C45.4071 287.877 1.07204 247.834 0.0183003 198.972C-0.918356 151.905 34.2063 111.902 81.0001 106.712C84.3955 44.5019 137.59 -3.18952 199.838 0.166829C232.348 1.92306 262.477 17.6511 282.537 43.253C314.032 16.4022 361.334 20.1879 388.145 51.6829C399.698 65.2645 406.059 82.4755 406.059 100.311C406.059 102.419 406.059 104.487 405.747 106.555C455.819 110.887 492.895 155.027 488.563 205.1C488.563 205.178 488.563 205.295 488.563 205.373C484.348 252.947 442.354 287.916 394.78 287.916H320.16L183.642 370.029C180.91 371.629 177.437 370.732 175.798 368.039C175.29 367.18 175.017 366.165 175.017 365.151V287.916L174.978 287.877Z" fill="white"/>
<path d="M245.071 229.91C197.224 229.91 152.264 211.294 118.427 177.458L137.551 157.944C166.431 186.824 204.561 202.591 245.11 202.591C285.66 202.591 323.789 186.785 352.474 158.1L371.793 177.418C337.956 211.255 292.958 229.91 245.11 229.91H245.071Z" fill="#F95A14"/>
</svg>
