<svg width="1240" height="546" viewBox="0 0 1240 546" fill="none" xmlns="http://www.w3.org/2000/svg">
<path d="M496.175 17.0476L506.221 35.0014H483.106L492.866 17.0476H496.175ZM450.888 56.8709H471.063L476.336 47.0249H512.974L518.6 56.8709H538.708L506.304 1.12219H482.771L450.904 56.8709H450.888Z" fill="white"/>
<path d="M194.201 41.9675C194.201 54.0577 200.784 56.9886 217.229 56.9886H239.134C263.156 56.9886 268.513 54.5109 268.513 39.4879C268.513 23.2447 261.996 21.6203 233.928 21.7047C214.559 21.7714 212.358 21.636 212.358 16.7807C212.358 13.7655 215.13 12.4767 219.213 12.4767H239.234C247.517 12.4767 248.021 14.1677 248.021 18.254H266.061V16.4963C266.061 6.71503 264.129 0 243.283 0H218.053C195.258 0 194.285 7.7881 194.285 17.8695C194.285 31.584 197.375 34.6659 224.555 34.6659C247.837 34.6659 249.951 34.968 249.951 39.8233C249.951 44.145 246.038 44.5296 242.208 44.5296H220.068C214.862 44.5296 212.343 44.0607 212.258 38.1323H194.201V41.9832V41.9675Z" fill="white"/>
<path d="M283.379 56.9396H301.437V35.8391H339.536V56.9396H357.627V1.17322H339.536V21.0515H301.437V1.17322H283.379V56.9396Z" fill="white"/>
<path d="M373.886 37.0768C373.886 50.9267 381.463 57.575 398.043 57.575H423.928C440.54 57.575 448.083 50.9267 448.083 37.0768V1.18872H430.025V33.3926C430.025 40.4608 427.354 43.2406 419.93 43.2406H402.024C394.598 43.2406 391.928 40.4608 391.928 33.3926V1.18872H373.871V37.0768H373.886Z" fill="white"/>
<path d="M146.595 17.0476L156.64 35.0014H133.526L143.286 17.0476H146.612H146.595ZM101.291 56.8709H121.482L126.757 47.0249H163.376L169.003 56.8709H189.094L156.707 1.12219H133.19L101.291 56.8709Z" fill="white"/>
<path d="M73.4233 39.4056L41.373 1.17322H13.3878V56.9396H31.4454V18.5895H33.4613L65.5452 56.9396H93.5473V1.17322H75.4728V39.4056H73.4233Z" fill="white"/>
<path d="M676.198 56.8709L643.794 1.12219H680.532L712.918 56.8709H676.198Z" fill="#ED1C24"/>
<path d="M558.831 56.8709L526.445 1.12219H539.698L572.102 56.8709H558.831Z" fill="#ED1C24"/>
<path d="M581.66 56.8709L549.274 1.12219H565.03L597.399 56.8709H581.66Z" fill="#ED1C24"/>
<path d="M607.023 56.8709L574.621 1.12219H595.904L628.306 56.8709H607.023Z" fill="#ED1C24"/>
<path d="M637.915 56.8709L605.528 1.12219H634.203L666.572 56.8709H637.915Z" fill="#ED1C24"/>
<path d="M432.124 330.145C432.124 389.429 411.128 440.138 369.15 482.306C327.156 524.473 276.14 545.54 216.07 545.54C156.002 545.54 105.743 524.458 63.4454 482.306C21.1485 440.138 0 389.429 0 330.145C0 270.861 21.1485 219.23 63.4454 177.081C105.743 134.911 156.607 113.828 216.07 113.828C275.536 113.828 327.156 134.911 369.15 177.081C411.128 219.248 432.124 270.275 432.124 330.145ZM319.042 330.145C319.042 301.423 308.929 277.141 288.705 257.28C268.48 237.435 244.258 227.487 216.07 227.487C187.884 227.487 163.813 237.418 143.891 257.28C123.968 277.141 114.007 301.441 114.007 330.145C114.007 358.849 123.968 382.243 143.891 402.088C163.796 421.951 187.868 431.881 216.07 431.881C244.274 431.881 268.48 421.951 288.705 402.088C308.929 382.243 319.042 358.245 319.042 330.145Z" fill="white"/>
<path d="M714.211 232.076H636.991V541.874H520.23L521.154 232.076H445.764V116.59L521.154 117.512H636.991L714.211 116.59V232.076Z" fill="white"/>
<path d="M1173.04 544.938H1056.28V520.807C1025.02 537.301 991.611 545.558 956.068 545.558C895.997 545.558 844.662 524.34 802.063 481.853C759.448 439.383 738.166 388.223 738.166 328.319C738.166 268.417 759.448 217.273 802.063 174.785C844.662 132.316 895.982 111.082 956.068 111.082C1016.15 111.082 1066.4 132.165 1108.69 174.334L1025.94 252.239C1006.33 234.52 983.028 225.663 956.068 225.663C927.258 225.663 902.75 235.609 882.508 255.454C862.285 275.317 852.172 299.615 852.172 328.319C852.172 357.023 862.285 380.57 882.508 400.733C902.734 420.895 927.242 430.977 956.068 430.977C984.892 430.977 1008.48 420.895 1028.7 400.733C1048.92 380.57 1059.04 356.437 1059.04 328.319H1173.04V544.938Z" fill="white"/>
<path d="M1172.52 287.525H952.254V404.166H1172.52V287.525Z" fill="white"/>
<path d="M1054.77 287.491L1122.33 403.746H1240L1172.46 287.491H1054.77Z" fill="#ED1C24"/>
</svg>
