<svg width="179" height="44" viewBox="0 0 179 44" fill="none" xmlns="http://www.w3.org/2000/svg">
<path d="M36.1568 26.4C32.6753 26.4013 29.2278 25.8647 26.0132 24.8212C22.7987 23.7777 19.8807 22.2479 17.4275 20.32V20.264L18.9037 19.2L20.5029 17.928C24.6583 21.1654 30.2902 22.9837 36.162 22.9837C42.0337 22.9837 47.6656 21.1654 51.821 17.928L54.8964 20.328C52.4401 22.2543 49.5199 23.7825 46.3038 24.8246C43.0876 25.8667 39.6392 26.4021 36.1568 26.4Z" fill="white"/>
<path d="M29.2293 33.9994H20.8359C15.7445 33.9994 11.1041 29.4154 11.0023 23.8074C10.9503 21.2039 11.7883 18.6737 13.3505 16.7169C14.9127 14.7601 17.0855 13.5192 19.4394 13.2394C19.5669 10.6105 20.421 8.087 21.8876 6.00646C23.3543 3.92591 25.3634 2.38745 27.6465 1.5968C29.9295 0.806142 32.3776 0.800985 34.6634 1.58201C36.9492 2.36305 38.9637 3.89303 40.4375 5.96738C41.5721 4.90121 42.9607 4.21515 44.4389 3.99051C45.9171 3.76587 47.4229 4.01207 48.7778 4.69994C50.1327 5.3878 51.2798 6.48849 52.0833 7.87155C52.8869 9.25461 53.313 10.8621 53.3114 12.5034C53.3176 12.7414 53.3054 12.9796 53.275 13.2154C54.5177 13.3291 55.7278 13.7121 56.8354 14.3423C57.943 14.9725 58.9264 15.8374 59.7288 16.8873C60.5313 17.9373 61.137 19.1514 61.5111 20.4599C61.8851 21.7683 62.0202 23.1453 61.9085 24.5114C61.4648 29.9674 57.0935 33.9674 52.1331 33.9674H44.3579L30.1312 43.4554C29.994 43.5434 29.8308 43.5684 29.6769 43.525C29.5231 43.4816 29.391 43.3732 29.3093 43.2234C29.2566 43.1238 29.229 43.0106 29.2293 42.8954V33.9994Z" fill="#5CACE3"/>
<path d="M36.4736 26.6553C34.0034 26.6567 31.5575 26.1201 29.2768 25.0766C26.996 24.0331 24.9257 22.5032 23.1852 20.5753V20.5193L24.2325 19.4553L25.3672 18.1833C28.3154 21.4208 32.3112 23.2391 36.4772 23.2391C40.6433 23.2391 44.639 21.4208 47.5873 18.1833L49.7693 20.5833C48.0266 22.5097 45.9546 24.0379 43.6728 25.08C41.391 26.1221 38.9443 26.6575 36.4736 26.6553Z" fill="white"/>
<path d="M83.7068 33.64L78.5232 15.5237H82.7073L85.706 28.1113H85.8564L89.1647 15.5237H92.7473L96.0468 28.1379H96.2061L99.2048 15.5237H103.389L98.2052 33.64H94.4723L91.0224 21.7954H90.8808L87.4398 33.64H83.7068ZM110.101 33.9054C108.703 33.9054 107.5 33.6223 106.492 33.0562C105.489 32.4842 104.717 31.6762 104.174 30.6324C103.631 29.5827 103.36 28.3413 103.36 26.9083C103.36 25.5107 103.631 24.284 104.174 23.2284C104.717 22.1728 105.48 21.3501 106.465 20.7604C107.456 20.1707 108.618 19.8758 109.95 19.8758C110.847 19.8758 111.681 20.0203 112.454 20.3093C113.232 20.5923 113.91 21.0199 114.488 21.5919C115.072 22.164 115.526 22.8834 115.851 23.7503C116.175 24.6113 116.337 25.6197 116.337 26.7756V27.8106H104.864V25.4753H112.79C112.79 24.9327 112.672 24.4521 112.436 24.0334C112.2 23.6147 111.873 23.2874 111.454 23.0515C111.041 22.8097 110.561 22.6888 110.012 22.6888C109.44 22.6888 108.933 22.8215 108.491 23.0869C108.054 23.3464 107.712 23.6972 107.465 24.1395C107.217 24.5759 107.09 25.0625 107.084 25.5991V27.8194C107.084 28.4917 107.208 29.0726 107.456 29.5621C107.709 30.0515 108.066 30.429 108.526 30.6943C108.986 30.9597 109.532 31.0924 110.163 31.0924C110.581 31.0924 110.965 31.0334 111.313 30.9155C111.661 30.7975 111.958 30.6206 112.206 30.3847C112.454 30.1488 112.642 29.8599 112.772 29.5178L116.257 29.7478C116.081 30.5852 115.718 31.3165 115.169 31.9416C114.627 32.5608 113.925 33.0444 113.064 33.3923C112.209 33.7344 111.221 33.9054 110.101 33.9054ZM118.867 33.64V15.5237H122.635V22.335H122.75C122.915 21.9693 123.154 21.5978 123.467 21.2204C123.785 20.8371 124.198 20.5186 124.705 20.265C125.218 20.0056 125.855 19.8758 126.616 19.8758C127.607 19.8758 128.521 20.1353 129.358 20.6543C130.196 21.1673 130.865 21.9428 131.366 22.9807C131.867 24.0127 132.118 25.3072 132.118 26.8641C132.118 28.3797 131.873 29.6594 131.384 30.7032C130.9 31.7411 130.24 32.5284 129.402 33.065C128.571 33.5958 127.639 33.8612 126.607 33.8612C125.876 33.8612 125.254 33.7403 124.741 33.4985C124.234 33.2567 123.818 32.953 123.493 32.5874C123.169 32.2158 122.921 31.8414 122.75 31.4639H122.582V33.64H118.867ZM122.556 26.8464C122.556 27.6543 122.668 28.359 122.892 28.9605C123.116 29.5621 123.44 30.0309 123.865 30.367C124.29 30.6973 124.806 30.8624 125.413 30.8624C126.026 30.8624 126.545 30.6943 126.97 30.3582C127.394 30.0162 127.716 29.5444 127.934 28.9429C128.158 28.3354 128.27 27.6366 128.27 26.8464C128.27 26.062 128.161 25.3721 127.943 24.7764C127.725 24.1808 127.403 23.7149 126.979 23.3788C126.554 23.0426 126.032 22.8746 125.413 22.8746C124.8 22.8746 124.281 23.0368 123.856 23.3611C123.437 23.6854 123.116 24.1454 122.892 24.7411C122.668 25.3367 122.556 26.0385 122.556 26.8464ZM133.016 18.6816V15.5237H147.895V18.6816H142.348V33.64H138.562V18.6816H133.016ZM148.863 33.64V20.0527H152.517V22.4234H152.658C152.906 21.5801 153.322 20.9432 153.906 20.5127C154.489 20.0763 155.162 19.8581 155.922 19.8581C156.111 19.8581 156.315 19.8699 156.533 19.8935C156.751 19.9171 156.943 19.9495 157.108 19.9908V23.3346C156.931 23.2815 156.686 23.2343 156.374 23.193C156.061 23.1517 155.775 23.1311 155.515 23.1311C154.961 23.1311 154.466 23.252 154.029 23.4938C153.599 23.7297 153.257 24.0599 153.003 24.4845C152.756 24.9091 152.632 25.3986 152.632 25.9529V33.64H148.863ZM159.056 33.64V20.0527H162.824V33.64H159.056ZM160.949 18.3013C160.389 18.3013 159.908 18.1155 159.507 17.744C159.112 17.3665 158.915 16.9154 158.915 16.3905C158.915 15.8716 159.112 15.4263 159.507 15.0548C159.908 14.6774 160.389 14.4887 160.949 14.4887C161.509 14.4887 161.987 14.6774 162.382 15.0548C162.783 15.4263 162.984 15.8716 162.984 16.3905C162.984 16.9154 162.783 17.3665 162.382 17.744C161.987 18.1155 161.509 18.3013 160.949 18.3013ZM173.07 20.0527V22.8834H164.888V20.0527H173.07ZM166.745 16.7975H170.514V29.4648C170.514 29.8127 170.567 30.084 170.673 30.2786C170.779 30.4673 170.926 30.6 171.115 30.6766C171.31 30.7533 171.534 30.7916 171.787 30.7916C171.964 30.7916 172.141 30.7769 172.318 30.7474C172.495 30.712 172.631 30.6855 172.725 30.6678L173.318 33.4719C173.129 33.5309 172.864 33.5987 172.522 33.6754C172.18 33.758 171.764 33.8081 171.274 33.8258C170.366 33.8612 169.57 33.7403 168.886 33.4631C168.208 33.1859 167.68 32.7554 167.303 32.1716C166.925 31.5878 166.739 30.8506 166.745 29.9601V16.7975Z" fill="#30302F"/>
</svg>
