<svg fill="none" height="110" viewBox="0 0 145 110" width="145" xmlns="http://www.w3.org/2000/svg"><path d="m52.21 84.7599h-23.68c-14.4 0-27.43997-11.7699-27.739971-26.1299-.27-13.8301 10.049971-25.59 23.799971-27.12 1-18.29 16.63-32.320048 34.93-31.320048 9.55.52 18.42 5.139998 24.31 12.670048 9.26-7.89005 23.16-6.78004 31.05 2.47 3.4 3.99 5.26 9.05 5.26 14.29 0 .62 0 1.23-.1 1.83 14.72 1.2799 25.62 14.24 24.34 28.96v.08c-1.24 13.9899-13.58 24.26-27.57 24.26h-21.94l-40.13 24.14c-.8.47-1.83.21-2.3-.59-.15-.26-.23-.55-.23-.84v-22.71z" fill="#5cace3"/><path d="m72.65 64.99c-13.35 0-26.7-5.08-36.87-15.24-.06-.06-.11-.11-.16-.17l2.62-2.32 2.48-2.47c17.6 17.6 46.24 17.59 63.85 0l4.95 4.95c-10.17 10.17-23.52 15.25-36.88 15.25z" fill="#fff"/></svg>