<svg width="740" height="427" viewBox="0 0 740 427" fill="none" xmlns="http://www.w3.org/2000/svg">
<g opacity="0.879">
<path fill-rule="evenodd" clip-rule="evenodd" d="M123.635 0.0622188C133.307 -0.103781 142.974 0.0622188 152.635 0.562219C157.997 2.42322 160.331 6.25722 159.635 12.0622C155.635 12.0622 151.635 12.0622 147.635 12.0622C147.635 11.0622 147.635 10.0622 147.635 9.06222C140.968 9.06222 134.302 9.06222 127.635 9.06222C127.465 10.3842 127.798 11.5512 128.635 12.5622C138.028 12.6752 147.361 13.3422 156.635 14.5622C157.802 15.7292 158.968 16.8952 160.135 18.0622C161.014 22.8492 160.68 27.5152 159.135 32.0622C157.487 33.2792 155.654 34.1122 153.635 34.5622C142.968 35.2292 132.302 35.2292 121.635 34.5622C116.875 32.2092 114.875 28.3762 115.635 23.0622C119.635 23.0622 123.635 23.0622 127.635 23.0622C127.495 24.6862 128.162 25.8522 129.635 26.5622C135.302 27.2292 140.968 27.2292 146.635 26.5622C148.727 25.6092 149.06 24.2762 147.635 22.5622C140.302 22.2292 132.968 21.8952 125.635 21.5622C116.558 20.2672 113.391 15.1012 116.135 6.06222C117.842 2.97222 120.342 0.972219 123.635 0.0622188Z" fill="#0B2652"/>
<path fill-rule="evenodd" clip-rule="evenodd" d="M313.635 0.0622253C316.851 0.592225 320.018 1.25823 323.135 2.06223C329.102 12.8582 335.269 23.5252 341.635 34.0622C338.426 35.3492 335.26 35.3492 332.135 34.0622C325.231 23.0272 319.064 11.6942 313.635 0.0622253Z" fill="#EC1C23"/>
<path fill-rule="evenodd" clip-rule="evenodd" d="M326.635 1.06223C326.695 0.519225 327.028 0.186225 327.635 0.0622253C331.169 0.693225 334.669 1.36023 338.135 2.06223C344.102 12.8582 350.269 23.5252 356.635 34.0622C353.09 35.3532 349.59 35.3532 346.135 34.0622C339.595 22.9662 333.095 11.9662 326.635 1.06223Z" fill="#EC1C23"/>
<path fill-rule="evenodd" clip-rule="evenodd" d="M341.635 1.06223C341.695 0.519225 342.028 0.186225 342.635 0.0622253C347.286 0.678225 351.953 1.34423 356.635 2.06223C362.635 12.7292 368.635 23.3952 374.635 34.0622C370.34 35.2232 366.006 35.3902 361.635 34.5622C354.816 23.4152 348.15 12.2482 341.635 1.06223Z" fill="#EC1C23"/>
<path fill-rule="evenodd" clip-rule="evenodd" d="M360.635 0.0622253C366.587 0.810225 372.587 1.31023 378.635 1.56223C384.842 12.4772 391.176 23.3112 397.635 34.0622C391.663 35.2262 385.663 35.3922 379.635 34.5622C372.877 23.2062 366.544 11.7062 360.635 0.0622253Z" fill="#EC1C23"/>
<path fill-rule="evenodd" clip-rule="evenodd" d="M382.635 1.06223C382.87 0.465225 383.37 0.132225 384.135 0.0622253C391.622 0.681225 399.122 1.34823 406.635 2.06223C413.094 12.8132 419.428 23.6472 425.635 34.5622C417.968 35.2292 410.302 35.2292 402.635 34.5622C395.816 23.4152 389.15 12.2482 382.635 1.06223Z" fill="#EC1C23"/>
<path fill-rule="evenodd" clip-rule="evenodd" d="M7.63525 1.06221C14.0033 0.732214 20.3373 1.06621 26.6353 2.06221C32.6573 8.91621 38.4903 15.9162 44.1353 23.0622C44.6353 15.7362 44.8013 8.40321 44.6353 1.06221C48.6353 1.06221 52.6353 1.06221 56.6353 1.06221C56.6353 12.3952 56.6353 23.7292 56.6353 35.0622C50.6263 35.2282 44.6263 35.0612 38.6353 34.5622C32.4683 27.0622 26.3023 19.5622 20.1353 12.0622C19.6353 19.7212 19.4693 27.3882 19.6353 35.0622C15.6353 35.0622 11.6353 35.0622 7.63525 35.0622C7.63525 23.7292 7.63525 12.3952 7.63525 1.06221Z" fill="#0B2652"/>
<path fill-rule="evenodd" clip-rule="evenodd" d="M78.6353 1.06223C83.9793 0.896231 89.3123 1.06323 94.6353 1.56223C100.842 12.4772 107.176 23.3112 113.635 34.0622C109.34 35.2232 105.006 35.3902 100.635 34.5622C99.6353 32.8952 98.6353 31.2292 97.6353 29.5622C90.6353 28.8952 83.6353 28.8952 76.6353 29.5622C75.6353 31.2292 74.6353 32.8952 73.6353 34.5622C69.2643 35.3902 64.9303 35.2232 60.6353 34.0622C66.9143 23.1682 72.9143 12.1682 78.6353 1.06223ZM86.6353 11.0622C88.8603 13.8242 90.8603 16.8242 92.6353 20.0622C88.9683 21.3952 85.3023 21.3952 81.6353 20.0622C83.0603 16.8742 84.7273 13.8742 86.6353 11.0622Z" fill="#0B2652"/>
<path fill-rule="evenodd" clip-rule="evenodd" d="M168.635 1.06223C172.635 1.06223 176.635 1.06223 180.635 1.06223C180.469 5.07623 180.636 9.07623 181.135 13.0622C187.802 11.7292 194.468 11.7292 201.135 13.0622C201.634 9.07623 201.801 5.07623 201.635 1.06223C205.968 1.06223 210.302 1.06223 214.635 1.06223C214.635 12.3952 214.635 23.7292 214.635 35.0622C210.302 35.0622 205.968 35.0622 201.635 35.0622C201.801 30.7162 201.634 26.3832 201.135 22.0622C194.468 23.3952 187.802 23.3952 181.135 22.0622C180.636 26.3832 180.469 30.7162 180.635 35.0622C176.635 35.0622 172.635 35.0622 168.635 35.0622C168.635 23.7292 168.635 12.3952 168.635 1.06223Z" fill="#0B2652"/>
<path fill-rule="evenodd" clip-rule="evenodd" d="M222.635 1.06223C226.635 1.06223 230.635 1.06223 234.635 1.06223C234.469 8.73623 234.635 16.4032 235.135 24.0622C238.233 25.6092 241.566 26.2762 245.135 26.0622C248.704 26.2762 252.037 25.6092 255.135 24.0622C255.635 16.4032 255.801 8.73623 255.635 1.06223C259.635 1.06223 263.635 1.06223 267.635 1.06223C267.801 10.0682 267.635 19.0682 267.135 28.0622C265.968 31.2292 263.802 33.3952 260.635 34.5622C250.627 36.5312 240.627 36.5312 230.635 34.5622C227.939 33.8722 225.772 32.3722 224.135 30.0622C222.715 20.4762 222.215 10.8092 222.635 1.06223Z" fill="#0B2652"/>
<path fill-rule="evenodd" clip-rule="evenodd" d="M287.635 1.06223C292.646 0.896231 297.646 1.06323 302.635 1.56223C308.842 12.4772 315.176 23.3112 321.635 34.0622C317.302 35.3952 312.968 35.3952 308.635 34.0622C307.511 32.6482 306.511 31.1482 305.635 29.5622C298.635 28.8952 291.635 28.8952 284.635 29.5622C283.635 31.2292 282.635 32.8952 281.635 34.5622C277.264 35.3902 272.93 35.2232 268.635 34.0622C274.727 22.8712 281.061 11.8712 287.635 1.06223ZM294.635 11.0622C296.86 13.8242 298.86 16.8242 300.635 20.0622C296.968 21.3952 293.302 21.3952 289.635 20.0622C291.06 16.8742 292.727 13.8742 294.635 11.0622Z" fill="#0B2652"/>
<path fill-rule="evenodd" clip-rule="evenodd" d="M628.635 172.062C641.83 195.283 655.164 218.45 668.635 241.562C678.963 242.062 689.296 242.228 699.635 242.062C699.635 270.062 699.635 298.062 699.635 326.062C675.968 326.062 652.302 326.062 628.635 326.062C628.961 321.678 628.627 317.345 627.635 313.062C592.294 329.929 556.294 331.429 519.635 317.562C460.497 288.469 434.331 240.969 441.135 175.062C452.337 121.86 483.837 87.0272 535.635 70.5622C583.532 59.0732 625.032 70.2402 660.135 104.062C658.898 107.338 656.732 110.171 653.635 112.562C639.156 125.207 625.156 138.374 611.635 152.062C593.215 136.677 572.382 132.344 549.135 139.062C519.645 151.702 506.312 174.036 509.135 206.062C514.474 231.069 529.307 247.569 553.635 255.562C573.958 260.235 592.292 256.235 608.635 243.562C594.639 243.062 580.639 242.895 566.635 243.062C566.635 219.395 566.635 195.729 566.635 172.062C587.302 172.062 607.968 172.062 628.635 172.062Z" fill="#0B2752"/>
<path fill-rule="evenodd" clip-rule="evenodd" d="M116.635 68.0622C181.105 65.7562 225.938 94.0902 251.135 153.062C269.882 218.166 251.716 269.999 196.635 308.562C159.077 329.591 120.077 332.591 79.6352 317.562C24.3572 290.863 -2.14276 246.697 0.135241 185.062C6.65724 138.893 30.1572 104.393 70.6352 81.5622C85.3512 74.5542 100.684 70.0542 116.635 68.0622ZM121.635 137.062C155.03 135.644 177.197 150.644 188.135 182.062C193.797 209.752 185.297 231.919 162.635 248.562C137.102 262.495 112.769 260.828 89.6352 243.562C71.5732 226.366 65.4062 205.533 71.1352 181.062C79.3112 156.256 96.1452 141.589 121.635 137.062Z" fill="#0B2652"/>
<path fill-rule="evenodd" clip-rule="evenodd" d="M265.635 70.0622C319.302 70.0622 372.968 70.0622 426.635 70.0622C426.635 93.3952 426.635 116.729 426.635 140.062C411.302 140.062 395.968 140.062 380.635 140.062C380.635 201.729 380.635 263.395 380.635 325.062C356.968 325.062 333.302 325.062 309.635 325.062C309.32 263.377 309.654 201.71 310.635 140.062C295.635 140.062 280.635 140.062 265.635 140.062C265.635 116.729 265.635 93.3952 265.635 70.0622Z" fill="#0B2652"/>
<path fill-rule="evenodd" clip-rule="evenodd" d="M628.635 172.062C652.311 171.729 675.978 172.062 699.635 173.062C713.101 195.829 726.435 218.663 739.635 241.562C739.302 242.062 738.968 242.562 738.635 243.062C725.685 242.081 712.685 241.748 699.635 242.062C689.296 242.228 678.963 242.062 668.635 241.562C655.164 218.45 641.83 195.283 628.635 172.062Z" fill="#EC1C24"/>
<path fill-rule="evenodd" clip-rule="evenodd" d="M472.635 351.062C476.968 351.062 481.302 351.062 485.635 351.062C485.945 357.32 485.611 363.486 484.635 369.562C486.942 368.92 489.276 367.92 491.635 366.562C503.913 364.197 511.413 369.03 514.135 381.062C514.635 390.389 514.801 399.723 514.635 409.062C510.302 409.062 505.968 409.062 501.635 409.062C501.801 400.056 501.635 391.056 501.135 382.062C498.583 375.913 494.417 374.58 488.635 378.062C487.551 379.227 486.718 380.56 486.135 382.062C485.635 391.056 485.469 400.056 485.635 409.062C481.302 409.062 476.968 409.062 472.635 409.062C472.635 389.729 472.635 370.395 472.635 351.062Z" fill="#0B2652"/>
<path fill-rule="evenodd" clip-rule="evenodd" d="M445.635 355.062C449.968 355.062 454.302 355.062 458.635 355.062C458.635 358.729 458.635 362.395 458.635 366.062C461.968 366.062 465.302 366.062 468.635 366.062C468.635 369.729 468.635 373.395 468.635 377.062C465.302 377.062 461.968 377.062 458.635 377.062C458.305 384.094 458.638 391.094 459.635 398.062C462.556 398.969 465.556 399.302 468.635 399.062C468.635 402.395 468.635 405.729 468.635 409.062C463.291 409.228 457.958 409.061 452.635 408.562C448.97 406.894 446.803 404.061 446.135 400.062C445.635 392.403 445.469 384.736 445.635 377.062C443.302 377.062 440.968 377.062 438.635 377.062C438.635 373.395 438.635 369.729 438.635 366.062C440.968 366.062 443.302 366.062 445.635 366.062C445.635 362.395 445.635 358.729 445.635 355.062Z" fill="#0B2652"/>
<path fill-rule="evenodd" clip-rule="evenodd" d="M325.635 366.062C346.675 363.936 356.175 373.269 354.135 394.062C350.755 404.769 343.421 410.103 332.135 410.062C313.468 407.745 306.468 397.412 311.135 379.062C314.085 372.523 318.918 368.189 325.635 366.062ZM329.635 376.062C335.44 375.366 339.274 377.7 341.135 383.062C341.802 386.395 341.802 389.729 341.135 393.062C340.45 395.619 338.95 397.453 336.635 398.562C325.193 399.775 320.693 394.609 323.135 383.062C324.153 379.547 326.32 377.214 329.635 376.062Z" fill="#0B2652"/>
<path fill-rule="evenodd" clip-rule="evenodd" d="M359.635 366.062C363.635 366.062 367.635 366.062 371.635 366.062C371.475 367.761 371.641 369.428 372.135 371.062C380.763 364.402 389.429 364.402 398.135 371.062C399.41 373.279 400.41 375.613 401.135 378.062C401.635 388.39 401.801 398.723 401.635 409.062C397.635 409.062 393.635 409.062 389.635 409.062C389.801 400.389 389.635 391.722 389.135 383.062C387.147 376.613 382.98 374.78 376.635 377.562C375.434 378.465 374.6 379.631 374.135 381.062C372.749 390.328 372.249 399.662 372.635 409.062C368.302 409.062 363.968 409.062 359.635 409.062C359.635 394.729 359.635 380.395 359.635 366.062Z" fill="#0B2652"/>
<path fill-rule="evenodd" clip-rule="evenodd" d="M534.635 366.062C553.495 363.929 562.829 372.262 562.635 391.062C552.28 390.73 541.947 391.063 531.635 392.062C533.832 398.996 538.499 401.496 545.635 399.562C547.547 398.362 548.88 396.695 549.635 394.562C553.968 393.895 558.302 393.895 562.635 394.562C556.938 408.032 546.938 412.699 532.635 408.562C521.543 403.658 517.043 395.158 519.135 383.062C521.382 374.652 526.549 368.985 534.635 366.062ZM536.635 376.062C539.653 375.897 542.653 376.064 545.635 376.562C547.77 377.321 549.103 378.821 549.635 381.062C543.968 382.395 538.302 382.395 532.635 381.062C533.295 378.747 534.628 377.081 536.635 376.062Z" fill="#0B2652"/>
<path fill-rule="evenodd" clip-rule="evenodd" d="M617.635 366.062C624.341 364.969 630.174 366.636 635.135 371.062C635.408 369.461 635.908 367.961 636.635 366.562C640.287 366.063 643.953 365.897 647.635 366.062C647.802 381.066 647.635 396.066 647.135 411.062C645.644 419.22 640.811 424.053 632.635 425.562C622.55 427.902 613.717 425.735 606.135 419.062C604.99 416.13 604.157 413.13 603.635 410.062C608.019 409.736 612.352 410.07 616.635 411.062C618.261 415.045 621.261 416.711 625.635 416.062C632.775 415.753 635.608 412.086 634.135 405.062C626.49 410.223 618.657 410.389 610.635 405.562C599.968 393.562 599.968 381.562 610.635 369.562C613.06 368.349 615.394 367.183 617.635 366.062ZM622.635 376.062C628.443 375.214 632.277 377.547 634.135 383.062C634.802 386.395 634.802 389.729 634.135 393.062C631.095 398.93 626.595 400.43 620.635 397.562C615.591 392.947 614.425 387.447 617.135 381.062C618.541 378.818 620.374 377.152 622.635 376.062Z" fill="#0B2652"/>
<path fill-rule="evenodd" clip-rule="evenodd" d="M668.635 366.062C693.071 365.276 701.905 376.609 695.135 400.062C685.146 410.989 673.646 412.822 660.635 405.562C652.947 398.151 650.78 389.317 654.135 379.062C657.297 372.726 662.131 368.393 668.635 366.062ZM672.635 376.062C680.765 375.856 685.098 379.856 685.635 388.062C684.831 397.469 679.831 400.969 670.635 398.562C663.53 390.257 664.196 382.757 672.635 376.062Z" fill="#0B2652"/>
<path fill-rule="evenodd" clip-rule="evenodd" d="M407.635 381.062C417.302 381.062 426.968 381.062 436.635 381.062C436.635 384.395 436.635 387.729 436.635 391.062C426.968 391.062 417.302 391.062 407.635 391.062C407.635 387.729 407.635 384.395 407.635 381.062Z" fill="#0B2652"/>
<path fill-rule="evenodd" clip-rule="evenodd" d="M567.635 381.062C577.635 381.062 587.635 381.062 597.635 381.062C597.635 384.395 597.635 387.729 597.635 391.062C587.635 391.062 577.635 391.062 567.635 391.062C567.635 387.729 567.635 384.395 567.635 381.062Z" fill="#0B2652"/>
</g>
</svg>
