<svg viewBox="0 0 1516.46 711.74" xmlns="http://www.w3.org/2000/svg" xmlns:xlink="http://www.w3.org/1999/xlink"><clipPath id="b"><path d="M0 0h1516.46v711.74H0z"/></clipPath><clipPath id="c"><path d="M1230.39 128.9 220.86 332.57c-17.65 3.56-32.38 20.21-33.12 37.32l-6.58 214.48c-.26 16.96 13.62 27.79 31.21 24.24l1009.54-203.67c17.62-3.56 32.36-20.19 33.12-37.28l.91-29.59 5.68-184.93c.22-14.79-10.3-24.91-24.66-24.91-2.11 0-4.3.21-6.55.66"/></clipPath><linearGradient id="a" gradientTransform="matrix(1251.03 0 0 -898.15 -64045.41 -116170.02)" gradientUnits="userSpaceOnUse" x1="51.29" x2="52.29" y1="-129.76" y2="-129.76"><stop offset="0" stop-color="#f36f21"/><stop offset=".98" stop-color="#fd0"/><stop offset="1" stop-color="#fd0"/></linearGradient><clipPath id="d"><path d="M0 0h1516.46v711.74H0z"/></clipPath><clipPath id="e"><path d="M1231.98 129.65h-.1c-1.98 0-4.05.23-6.18.67L247.33 332.91c-17.02 3.52-31.27 19.93-32.1 36.82l-3.03 98.61-3.51 114.19c-.26 16.82 13.18 27.56 30.25 24.02l978.37-202.59c17-3.52 31.24-19.9 32.1-36.77l3.44-111.83 3.1-101.03c.23-14.64-9.95-24.68-23.86-24.68h-.1z"/></clipPath><linearGradient id="f" gradientTransform="matrix(1224.63 0 0 -892.86 -62660.39 -115487.07)" x1="51.28" x2="52.28" xlink:href="#a" y1="-129.76" y2="-129.76"/><clipPath id="g"><path d="M0 0h1516.46v711.74H0z"/></clipPath><clipPath id="h"><path d="M397.94 192.2c-3.85.03-7.89.46-12.07 1.36l-248.59 52.91c-35.06 7.46-67.39 43.49-72.23 80.5L30.74 589.35c-4.84 37 19.64 60.94 54.7 53.48l248.59-52.91c35.08-7.46 67.4-43.5 72.23-80.5l34.31-262.37c4.23-32.45-14.04-54.85-42.26-54.85z"/></clipPath><linearGradient id="i" gradientTransform="matrix(471.34 0 0 -438.46 -23421.3 -56049.08)" gradientUnits="userSpaceOnUse" x1="49.68" x2="50.68" y1="-128.79" y2="-128.79"><stop offset="0" stop-color="#58b947"/><stop offset="1" stop-color="#0b6b37"/></linearGradient><clipPath id="j"><path d="M0 0h1516.46v711.74H0z"/></clipPath><clipPath id="k"><path d="M387.21 208.26c-3.58.04-7.32.46-11.21 1.29l-232.6 49.52c-32.78 6.97-63.01 40.45-67.5 74.78l-19.25 147.2c118.59-24.42 258.68-141.7 363.66-169.03l6.92-52.95c3.94-30.06-13.16-50.81-39.5-50.81h-.53z"/></clipPath><linearGradient id="l" gradientTransform="matrix(295.42 0 0 -384.03 -14272.57 -49112.07)" gradientUnits="userSpaceOnUse" x1="48.62" x2="49.62" y1="-128.79" y2="-128.79"><stop offset="0" stop-color="#57b347"/><stop offset="1" stop-color="#82c341"/></linearGradient><clipPath id="m"><path d="M0 0h1516.46v711.74H0z"/></clipPath><clipPath id="n"><path d="M1223.95 466.09c-.02-.07-.03-.14-.04-.21-.07.08-.03.16.04.21m-206.38-315.01.44-.46c-.27 0-.52.15-.44.46m168.56-118.95.25-.55-4.29.04.6.38-2.12.99c-4.13.97-3.89-.15-8.73 2.03-7.09 3.17-47.45 9.83-49.88 18.76l-4.71 2.6c-5.42-.36-11.06-1.29-16.58 2.3l-7.22-4.17-3.56 1.6-5.72 12.01c-5.43 3.09-14.85 8.79-18.37 14.42.26 1.4-4.75 9.45-4.85 13.87l1.9 1.94c-8.95 17.73-25.18 16.89-28.1 29.3l-6.37 4.76c-2.28 4.27-2.19 7.6-3.71 11.35l-6.66 6.87c.35 0 .71.22.32.64-4.07 6.95-9.59 14.12-10.04 21.78-.01.42.2-.28.51-.98.27-.6.61-1.21.92-1.09 2.39.89 4.96 2.91 4.87 5.66-.22 7.2 2.94 28.28-10.56 39.44s1.08 0 1.08 0c2.87 3.04 4.58 4.89 4.87 6.28.25 1.22 3.06.75 2.89 2.07-.34 2.63-4.33 4.85-4.16 7.39.03.35 3.32 1.64 6.15 1.7.07 0-.61 2.25.63 1.63l3.03-2.23 1.47.38c-4.65 8.55 6.05 5.75 14.46 18.62l-1.45.4.23 2.12.68-.83.99.19-1.43 1.36-.81-.31c-.1 3.14 6.72 2.19 6.71 5.31 0 .7-1.36.44-2.31.2-.48-.14-.87-.28-.89-.28l-1.5.91 2.02.03c9.41 4.12 14.69 7.25 23.08 12.36 3.51 2.16 7.81 2.8 12 3.51 4.63.78 9.2-5.6 14.07-7.51 1.46-.58 10.92-1.86 7.05-2.06l8.86-.9 1.16-1.87.86 1.45-1.51.31c6.15-.06 29.94-5.38 31.36-12.02 6.77-3.16 16.25-6.31 22.99-5.33 3.73 3.51 3.9 4.2 7.08 4.62l-.34 1.05-1.07.28.45 1.41c3.02 5.53 9.09 3.64 15 1.75 8.55-2.73 16.75-5.47 14.83 14.29 1.88.15-2.83 6.75-2.9 7.18l2.18.09-.77.82c-.03.19.8 3.18.04 3.29-.32.07-.67-.15-1-.36-.44-.3-.86-.61-1.09-.18l4.39 2.06c-.77.72-1.34.66-1.94.58-.3-.05-.62-.08-.97-.02l-.23.52-.95-1.31.07 2.43-2.65 5.37c0 .05-.04.13-.12.25l.12-.25c.06-.45-1.65.39-1.47.78l1.97 3.64 1.76-.9c.14-.07-.27.52-.62 1.13-.36.62-.66 1.23-.19 1.09l.63-.23 1.25-.56c-2.38 2.63-2.65 1.32.39 3.34.28.19-.2-.1-.79-.39-.68-.35-1.48-.68-1.4-.28.66 3.14 16.91 11.38 20.03 21.56l-.78 1.36c.36 1.58 4.81 2.97.92 2.85 3.47 5.21 4.64 10.11 7.39 15.84 9.19 47.16-33.7 33.5 5.11 98.1l-.87.89c.43 6.81 1.08 8.51 2.61 14.61.85 3.41-.04 6.39 1.67 10.01.24.55-.21.55-.39.41 1.1 5.88 17.22 26.12 21.44 36.11-1.05 3.39-2.57 2.47-3 2.74-2.41 1.48.83 2.14.88 2.39l-.73.31 3.53 4.62c-.91.64.44 1.52 1.31 1.37 1.97-.35 5.25.73 4.63 2.71l4.83.81h.1c8.79-5.58 15.13-6.56 22.76-8.7l2.13-1.35 8.95.19c.79-1.94 2.1-1.72 3.45-1.8l1.85-1.16c11.59-3.36 19.35-22.8 30.7-22.54l13.66-19.29c5.69-1.66 8.87-16.99 8.5-21.07l-.79 1.36-1.81-1.78c.12-.72 5.01-6.58 5.78-5.84l12.98-7.35c5.2-5.98 1.52-5.09 1.53-5.44l1.92-6.44c-.74-.59-2.88-10.31-5.91-16.24-.84-1.67 2.23-5.27 1.49-4.18 3.43-3.75 6.51-6.33 9.44-8.21l.22-1.25 1.06.29 4.16-5.58c-1.15.3.36-.85.47-.93l14.85-9.3c2.56-1.52 5.57-4.93 5.03-4.93-1.17 0 2.31-2.89 2.39-2.99l-.5-.16 4.37-5.75c1.08-3.59 1.91-35.44-6.86-41.48-4.17-2.87 4.37-18.14-4.55-20.42 9.2-20.75 15.28-24.18 22.46-36.55l.1-.9c16.98-22.07 39.08-35.39 52.43-60.66l-.08-.72 5.6-10.62-.19-.76c.26-.43 8.71-12.3 7.26-12.92l.95-5.14c3.71-2.42 2.14-11.29-.68-11.56-2.91-.28-5.45 3.9-8.42 5.16-2.37 1.03-12.9 5.16-14.79 4.37l-7.42 4.45c-3.19-1.21-5.61.42-8.21 2.05-2.04 1.27-4.19 2.52-6.92 2.45-8.57-4.42-15.23-5.04-5.52-10.72l-2.96-5.01c.37 1.56-1.91-.52-4.28-2.57-1.88-1.65-3.81-3.3-4.56-3.13l-4.08-4.31c-10.6 3.12-11.98-10.59-16.73-20.46-9.4-2.78-8.31-7.03-9.26-16.04-.38-3.64-1.21-5.05-2.36-8.4l.53-1.43c-2.29-1.99-6.56-1.81-7.99-4.54-.71-1.37-2.72-5.42-1.34-7.37l2.03.11c-5.15-2.51-9.12-12.56-12.51-17.08l.53-1.43-3.3-4.94c.65-.05-.26-2.16.53-1.64l-6.39-6.5c1-1.59-1.32-2.96-1.92-3.83-.53-.79.54-3.34 1.47-3.03 3.07 1.01 5.87 5.04 4.45 8.47l7 5.04c1.85-2.03 3.21-9.66 5.16-12.95l-4.67-11.63-7.22 2.93c-.35-.96-1.2-.49-2.18-.02-.73.34-1.54.69-2.25.44l-1.81-1.07-1.22 1.91-2.31-1.48.77-1.13-5.9.07.48.16c-1.63.86-3.6.21-5.16 1.24l-1.42 2.19-.76-.61-6.82 4.56c-2.32-1.01-5.62-.82-8.28-.78.17-.9-3.32-1.02-3.9-1.05-1.52-.06-3.72.29-6 .63-4.83.74-10.06 1.47-10.46-1.69-7.43 1.03-10.06.7-13.1-2.48-13.16-1.46-10.02-.9-22.34 9.67l1.36 4.3-7.25 7.1c-2.96 1.24-24.54-3.49-27.01-10.08-5.15.6-10.56.08-15.98-.44-3.9-.38-7.81-.76-11.61-.72-2.61-2.08-7.73-1.81-8.61-5.2l1.87-1.76c1.53-1.25 5.94-4.83 6.29-6.98.53-3.38-3.73-3.3-4.52-5.58-.34-1.02-.25-3.99-.25-3.99l-.35-.76c-.43-2.37-1.81-2.52-4.1-2.67-4.89 1.95-8.83 5.08-13.97 5.38"/></clipPath><linearGradient id="o" gradientTransform="matrix(732.41 0 0 -731.5 -36422.47 -94746.9)" gradientUnits="userSpaceOnUse" x1="50.99" x2="51.99" y1="-129.9" y2="-129.9"><stop offset="0" stop-color="#4aab57"/><stop offset=".69" stop-color="#87c540"/><stop offset="1" stop-color="#87c540"/></linearGradient><clipPath id="p"><path d="M0 0h1516.46v711.74H0z"/></clipPath><path d="m303.94 607.23-173.06 93.9-62.45-20.63-57.69-90.64 27.35-209.28 143.06-168.6 161.39-72.16 46.26 23.95 52.38 36.03-7.72 101.65 160.3 94.75z" fill="#fff"/><g clip-path="url(#b)" fill="#fff" fill-rule="evenodd"><path d="M176.6 392.56c.7-18.61 16.07-36.73 34.35-40.49l1030.66-212.19c18.27-3.76 32.52 8.28 31.81 26.88l-8.19 218.28c-.7 18.61-16.07 33.84-34.35 37.6L200.22 634.82c-18.28 3.76-32.52-5.37-31.82-23.98l8.19-218.27z"/><path d="M187.72 370.27c.53-17.24 15.36-34.12 33.13-37.7L1230.39 128.9c17.76-3.59 31.74 7.48 31.21 24.72l-6.56 213.6c-.54 17.25-15.37 34.13-33.13 37.71L212.37 608.6c-17.76 3.59-31.74-7.49-31.21-24.73l6.56-213.61z"/></g><g clip-path="url(#c)"><path d="M142.64 22.09h1157.44v696.22H142.64z" fill="url(#a)" transform="rotate(-11.89 721.234 370.154)"/></g><g clip-path="url(#d)"><path d="M187.72 370.27c.53-17.24 15.36-34.12 33.13-37.7L1230.39 128.9c17.76-3.59 31.74 7.48 31.21 24.72l-6.56 213.6c-.54 17.25-15.37 34.13-33.13 37.71L212.37 608.6c-17.76 3.59-31.74-7.49-31.21-24.73l6.56-213.61z" fill="none" stroke="#fff" stroke-miterlimit="10" stroke-width="5"/><path d="M334.61 592.39 152.67 692.51c-21.11 11.61-41.66 10.52-56.04-.65 12.08 3.98 26.59 2.82 41.69-4.49z" fill="#fff"/><path d="M334.61 592.39 152.67 692.51c-21.11 11.61-41.66 10.52-56.04-.65 12.08 3.98 26.59 2.82 41.69-4.49z" fill="none" stroke="#fff" stroke-miterlimit="10" stroke-width="3"/><path d="m113.99 248.94 186.6-102.67c21.65-11.91 42.71-10.79 57.46.66-12.37-4.08-27.26-2.89-42.75 4.6L114 248.94z" fill="#fff"/><path d="m113.99 248.94 186.6-102.67c21.65-11.91 42.71-10.79 57.46.66-12.37-4.08-27.26-2.89-42.75 4.6L114 248.94z" fill="none" stroke="#fff" stroke-miterlimit="10" stroke-width="3"/><path d="m315.5 606.45-191.41 80.56c-22.21 9.35-42.52 6.11-55.66-6.5 11.59 5.23 26.15 5.58 41.94-.11l205.13-73.94z" fill="#fff"/><path d="m315.5 606.45-191.41 80.56c-22.21 9.35-42.52 6.11-55.66-6.5 11.59 5.23 26.15 5.58 41.94-.11l205.13-73.94z" fill="none" stroke="#fff" stroke-miterlimit="10" stroke-width="3"/><path d="m139.05 240.34 196.29-82.61c22.78-9.58 43.61-6.28 57.08 6.67-11.89-5.37-26.8-5.73-43 .11z" fill="#fff"/><path d="m139.05 240.34 196.29-82.61c22.78-9.58 43.61-6.28 57.08 6.67-11.89-5.37-26.8-5.73-43 .11z" fill="none" stroke="#fff" stroke-miterlimit="10" stroke-width="3"/><path d="M227.7 633.57 97 673.08c-25.7 7.77-47.42.26-58.37-17.37 10.68 8.98 25.89 12.59 43.59 8.83l145.48-30.96z" fill="#fff"/><path d="M227.7 633.57 97 673.08c-25.7 7.77-47.42.26-58.37-17.37 10.68 8.98 25.89 12.59 43.59 8.83l145.48-30.96z" fill="none" stroke="#fff" stroke-miterlimit="10" stroke-width="3"/><path d="M236.55 210.28 363.13 172c22.33-6.75 41.73-2.25 53.96 10.28-9.76-4.55-21.75-5.8-35.12-2.96l-145.43 30.96z" fill="#fff"/><path d="M236.55 210.28 363.13 172c22.33-6.75 41.73-2.25 53.96 10.28-9.76-4.55-21.75-5.8-35.12-2.96l-145.43 30.96z" fill="none" stroke="#fff" stroke-miterlimit="10" stroke-width="3"/><path d="M417.17 521.36c-5.2 39.66-39.92 78.31-77.62 86.31L72.39 664.38c-27.97 5.94-63.5-21.47-58.79-57.35l36.85-281.32c5.2-39.68 39.95-78.32 77.62-86.31l267.16-56.73c32.42-6.88 63 25.29 58.8 57.35z" fill="#fff"/><path d="M417.17 521.36c-5.2 39.66-39.92 78.31-77.62 86.31L72.39 664.38c-27.97 5.94-63.5-21.47-58.79-57.35l36.85-281.32c5.2-39.68 39.95-78.32 77.62-86.31l267.16-56.73c32.42-6.88 63 25.29 58.8 57.35z" fill="none" stroke="#fff" stroke-miterlimit="10" stroke-width="3"/><path d="M403.64 517.5c-4.99 38.17-38.35 75.36-74.54 83.06L72.54 655.17c-36.18 7.7-61.45-17.01-56.46-55.18l35.41-270.78c5-38.19 38.37-75.39 74.54-83.08l256.56-54.61c36.18-7.71 61.45 17 56.46 55.19z" fill="#fff"/><path d="M403.64 517.5c-4.99 38.17-38.35 75.36-74.54 83.06L72.54 655.17c-36.18 7.7-61.45-17.01-56.46-55.18l35.41-270.78c5-38.19 38.37-75.39 74.54-83.08l256.56-54.61c36.18-7.71 61.45 17 56.46 55.19z" fill="none" stroke="#fff" stroke-miterlimit="10"/><path d="m353.66 207.44-240.04 51.1c-33.84 7.19-65.03 41.75-69.66 77.18L24.1 487.64c122.39-25.2 266.97-146.25 375.31-174.45l7.15-54.64c4.63-35.42-19.03-58.3-52.88-51.1M307.45 572.15l-243.1 51.74c-28.43 6.06-49.8-8.62-53.62-34.03-4.23 35.02 19.35 57.54 52.95 50.39l240.04-51.09c33.63-7.16 64.61-41.29 69.55-76.46-10.85 28.52-37.39 53.4-65.84 59.45M1494.12 145.97l-22.29 2.07-22.62 8.71c-.7-2.36-2.46-4.74-3.45-6.4l-2.08.85c-.08-.7-.21-1.44-.41-2.25l-.79-.62-1.44-1.23c-1.74-1.52-3.49-3.19-5.55-4.31l-.61-.29c-1.84-1.94-4.89-5.89-8.39-4.87-7.97 2.35-7.65-19.3-14.64-21.38-8.49-2.53-4.96-11.82-8.23-20.72 1.66-6.85-5.43-6.53-8.68-8.58l-.46-.94c3.47-1.78 3.59-6.6-1.08-8.88-3.14-1.53-7.62-10.8-9.92-14.4-.06-1.33-.27-2.29-.63-3.15 5.18-3.76 8.65-17.31 7.8-19.42-5.06-12.63-3.62-18.11-16.32-12.96-1.3-.23-2.82.07-4.56.85l-1.92-.57c-2.34-1.59-10.84-1.48-13.29-.06-2.41.29-3.82.96-5.48 2.68-2.11.51-5.91 3.68-6.27 3.92-2.09-.41-4.21-.42-6.33-.38-5.78-3.11-14.64 1.32-19.28.15l.65.41.86 1.62-5.7-4.34c-3.1.44-6.91 1.48-9.35-1.07-2.9-3.05-14.45-2.54-18.02-.64-4.94 2.63-23.83 10.75-21.79 17.28l-4.35 4.27c-10.83-.39-15.89-11.18-17.83-10.96-8.86 1.05-17.92-1.11-26.8-1.23-.72-.4-1.47-.7-2.24-.99l1.02-.98c4.51-4.45 7.24-10.72.12-15.2l-.79-.82c-.02-.77 0-1.41-.61-4.02-3.14-12.26-15.71-2.66-21.68-.94-2.8-.67-9.1-.59-11.11 1.77-3.04.3-4.95.76-7.89 2.07-12.78 5.7-46.63 8.19-53.99 20.62l-2.17 1.2c-5.58-.42-10.9-.65-16.14 1.76-2.02-1.17-6.56-4.59-9.68-3.18-8.28 3.72-6.59 4.91-11.51 15.25-6.69 3.87-15.47 9.38-19.6 15.99l-.65 3.46-.38-.52c-2.13 5-6.34 11.39-3.88 16.82-6.99 11.12-23.45 14.65-27.64 27.04-10.02 7.49-6.58 5.63-10.53 17.13l-2.6 2.67c-2.23.39-4.08 1.85-3.39 4.51l-.63.86c-4.59 7.86-10.63 15.57-11.17 25.05-.15 2.86 3.4 5.77 6.57 4.91.07 12.3 1.56 27.58-9.21 36.47-2.47 2.04-2.45 6.41.9 7.57.91.95 2.91 2.72 3.6 3.9.19.89.61 1.71 1.21 2.43-3.7 4.55-3.89 10.08 3 12.27.33.1 3 .75 5.31 1.33 1.67 5.88 10.19 8.59 14.55 13.63l-.17 1.36-.28 1.79c-.08 2.69 1.12 4.49 2.84 5.74-.9 2.82.48 5.82 5.32 5.89 9.94 4.42 20.02 12.65 29.99 15.17 18.83 4.8 15.53-5.05 25.82-7.08l3.43-.67c1.58-.32 2.96-.71 4.14-1.16 2.9-.31 4.86-.31 6.47-.75 8.3-.13 31.4-5.47 36.42-13.8 6.03-2.63 12.99-4.69 18.01-4.51l1.05 1.02c.81.77 1.58 1.38 2.36 1.92l.39 1.47.37.86c7.57 13.83 25 .82 29.73 2.59 1.93 1.89.27 9.54.97 12.5l-.25.47c-1.52 2.75-3.09 5.53-2.92 7.68l-.03.05c-.98 1.79-.9 3.21-.24 4.4l-.04 1.38-.96 1.94c-3.62-1.04-6.42.4-2.76 7.88.86 1.59 1.58 2.94 2.34 4.04l.34 1.84c1.27 6.12 16.27 13.02 20.42 21.43-.32 1.75-.51 2.67.36 4.25.08.98 7.23 16.46 8.12 18.37 2.41 12.83 1.39 21.33-4.42 32.4-13.83 26.4-6.91 41.96 8.87 68.82-.08.28 3.08 25.07 4.73 28.59l-.43.65c1.44 4.45 18.66 31.52 21.16 34-3.09 1.95-4.67 6.14-1.74 9.21.85 1.59 2.7 3.67 3.47 4.65 1.1 2.78 4.33 5.07 7.46 4.51l-.79-.76c.3-1 .17-1.88-.26-2.66l3.81 6.17c1.82.31 6.44 1.56 8.67.14 7.91-5.02 13.76-6.08 22.47-8.53l1.32-.58.95-.6 7.87.16 3.28-1.93c1.72-.57 2.71-.48 4.48-1.57 10.91-3.64 15.91-14.64 24.64-21.05 2.48-1.81 7.98-2.12 9.46-4.22l13.46-19.02c7.11-3.89 11.26-19.53 10.59-26.55l-.19-1.28.17-.17c5.36-1.04 9.6-5.25 14.36-7.95l1.32-1.07c2.4-2.75 5.46-6.58 3.45-10.3l1.19-4.01-1.71-5.39.83.37c-1.55-4.79-2.85-9.64-4.93-14.24l.08-.12c2.8-3.07 7.46-5.62 9.73-8.76 2.84-1.25 4.59-4.98 6.13-7.05l.31-.46 14.25-8.92c2.4-1.43 6.26-4.43 7-7.46 1.43-1.44 2.99-2.46 3.45-4.6l2.8-3.7c4.9-6.45 1.24-42.61-7.43-49.86v-.6c.27-6.39 2.98-13.85-2.09-19.21 3.85-8.15 7.13-13.25 10.21-17.55 2.96-4.14 10.2-13 11.66-17.53 12.75-16.26 51.96-49.24 54.93-64.81 2.21-4.19 5.09-7.32 5.71-11.72 2.16-3.13 7.55-10.45 7.6-14.29l.76-4.09c6.39-9.46.38-22.87-9.45-18.36" fill="#fff"/><path d="m1494.12 145.97-22.29 2.07-22.62 8.71c-.7-2.36-2.46-4.74-3.45-6.4l-2.08.85c-.08-.7-.21-1.44-.41-2.25l-.79-.62-1.44-1.23c-1.74-1.52-3.49-3.19-5.55-4.31l-.61-.29c-1.84-1.94-4.89-5.89-8.39-4.87-7.97 2.35-7.65-19.3-14.64-21.38-8.49-2.53-4.96-11.82-8.23-20.72 1.66-6.85-5.43-6.53-8.68-8.58l-.46-.94c3.47-1.78 3.59-6.6-1.08-8.88-3.14-1.53-7.62-10.8-9.92-14.4-.06-1.33-.27-2.29-.63-3.15 5.18-3.76 8.65-17.31 7.8-19.42-5.06-12.63-3.62-18.11-16.32-12.96-1.3-.23-2.82.07-4.56.85l-1.92-.57c-2.34-1.59-10.84-1.48-13.29-.06-2.41.29-3.82.96-5.48 2.68-2.11.51-5.91 3.68-6.27 3.92-2.09-.41-4.21-.42-6.33-.38-5.78-3.11-14.64 1.32-19.28.15l.65.41.86 1.62-5.7-4.34c-3.1.44-6.91 1.48-9.35-1.07-2.9-3.05-14.45-2.54-18.02-.64-4.94 2.63-23.83 10.75-21.79 17.28l-4.35 4.27c-10.83-.39-15.89-11.18-17.83-10.96-8.86 1.05-17.92-1.11-26.8-1.23-.72-.4-1.47-.7-2.24-.99l1.02-.98c4.51-4.45 7.24-10.72.12-15.2l-.79-.82c-.02-.77 0-1.41-.61-4.02-3.14-12.26-15.71-2.66-21.68-.94-2.8-.67-9.1-.59-11.11 1.77-3.04.3-4.95.76-7.89 2.07-12.78 5.7-46.63 8.19-53.99 20.62l-2.17 1.2c-5.58-.42-10.9-.65-16.14 1.76-2.02-1.17-6.56-4.59-9.68-3.18-8.28 3.72-6.59 4.91-11.51 15.25-6.69 3.87-15.47 9.38-19.6 15.99l-.65 3.46-.38-.52c-2.13 5-6.34 11.39-3.88 16.82-6.99 11.12-23.45 14.65-27.64 27.04-10.02 7.49-6.58 5.63-10.53 17.13l-2.6 2.67c-2.23.39-4.08 1.85-3.39 4.51l-.63.86c-4.59 7.86-10.63 15.57-11.17 25.05-.15 2.86 3.4 5.77 6.57 4.91.07 12.3 1.56 27.58-9.21 36.47-2.47 2.04-2.45 6.41.9 7.57.91.95 2.91 2.72 3.6 3.9.19.89.61 1.71 1.21 2.43-3.7 4.55-3.89 10.08 3 12.27.33.1 3 .75 5.31 1.33 1.67 5.88 10.19 8.59 14.55 13.63l-.17 1.36-.28 1.79c-.08 2.69 1.12 4.49 2.84 5.74-.9 2.82.48 5.82 5.32 5.89 9.94 4.42 20.02 12.65 29.99 15.17 18.83 4.8 15.53-5.05 25.82-7.08l3.43-.67c1.58-.32 2.96-.71 4.14-1.16 2.9-.31 4.86-.31 6.47-.75 8.3-.13 31.4-5.47 36.42-13.8 6.03-2.63 12.99-4.69 18.01-4.51l1.05 1.02c.81.77 1.58 1.38 2.36 1.92l.39 1.47.37.86c7.57 13.83 25 .82 29.73 2.59 1.93 1.89.27 9.54.97 12.5l-.25.47c-1.52 2.75-3.09 5.53-2.92 7.68l-.03.05c-.98 1.79-.9 3.21-.24 4.4l-.04 1.38-.96 1.94c-3.62-1.04-6.42.4-2.76 7.88.86 1.59 1.58 2.94 2.34 4.04l.34 1.84c1.27 6.12 16.27 13.02 20.42 21.43-.32 1.75-.51 2.67.36 4.25.08.98 7.23 16.46 8.12 18.37 2.41 12.83 1.39 21.33-4.42 32.4-13.83 26.4-6.91 41.96 8.87 68.82-.08.28 3.08 25.07 4.73 28.59l-.43.65c1.44 4.45 18.66 31.52 21.16 34-3.09 1.95-4.67 6.14-1.74 9.21.85 1.59 2.7 3.67 3.47 4.65 1.1 2.78 4.33 5.07 7.46 4.51l-.79-.76c.3-1 .17-1.88-.26-2.66l3.81 6.17c1.82.31 6.44 1.56 8.67.14 7.91-5.02 13.76-6.08 22.47-8.53l1.32-.58.95-.6 7.87.16 3.28-1.93c1.72-.57 2.71-.48 4.48-1.57 10.91-3.64 15.91-14.64 24.64-21.05 2.48-1.81 7.98-2.12 9.46-4.22l13.46-19.02c7.11-3.89 11.26-19.53 10.59-26.55l-.19-1.28.17-.17c5.36-1.04 9.6-5.25 14.36-7.95l1.32-1.07c2.4-2.75 5.46-6.58 3.45-10.3l1.19-4.01-1.71-5.39.83.37c-1.55-4.79-2.85-9.64-4.93-14.24l.08-.12c2.8-3.07 7.46-5.62 9.73-8.76 2.84-1.25 4.59-4.98 6.13-7.05l.31-.46 14.25-8.92c2.4-1.43 6.26-4.43 7-7.46 1.43-1.44 2.99-2.46 3.45-4.6l2.8-3.7c4.9-6.45 1.24-42.61-7.43-49.86v-.6c.27-6.39 2.98-13.85-2.09-19.21 3.85-8.15 7.13-13.25 10.21-17.55 2.96-4.14 10.2-13 11.66-17.53 12.75-16.26 51.96-49.24 54.93-64.81 2.21-4.19 5.09-7.32 5.71-11.72 2.16-3.13 7.55-10.45 7.6-14.29l.76-4.09c6.39-9.46.38-22.87-9.45-18.36z" fill="none" stroke="#fff" stroke-miterlimit="10"/><path d="M1197.83 33.6c5.71-1.64 17.7-10.81 20.71.9.58 2.49.56 3.11.57 3.84l.75.77c6.8 4.27 4.2 10.26-.12 14.52l-.97.94c.73.26 1.45.56 2.14.94 8.48.12 17.12 2.18 25.58 1.18 1.86-.21 14.79 10.1 25.14 10.46l4.15-4.07c-1.95-6.24 7.97-13.99 12.69-16.51 3.42-1.82 14.44-2.3 17.22.61 2.32 2.43 5.96 1.43 8.92 1.02l5.44 4.15-.83-1.54-.61-.41c4.44 1.12 12.89-3.1 18.41-.15 2.02-.03 4.06-.01 6.05.38.33-.23 3.97-3.25 5.98-3.75 1.59-1.65 2.94-2.29 5.23-2.56 2.34-1.34 10.46-1.46 12.69.06l1.85.55c1.65-.74 3.1-1.05 4.35-.82 12.12-4.92 10.75.32 15.59 12.39 1.05 2.63-4.93 24-12.42 18.62-2.22-1.6-10.73-5.71-8.62-10.78.01-.04-.2-1.6-1.5-2.03.9-1.98 3.27-1.9 4.59-1.47-.39-.57-1.05-1.76-.58-2.78 1.23 1.83 2.45 2.06 2.92 4.75l4.82 4.92c3.68 3.73 1.1 8.51-2.86 8.46l2.89-6.14c2.38 3.54 3.74 4.34 3.89 8.03 2.19 3.43 6.47 12.27 9.48 13.74 4.46 2.18 4.34 6.77 1.03 8.48l.45.89c3.1 1.95 9.87 1.65 8.28 8.18 3.12 8.51-.25 17.37 7.86 19.79 6.69 1.99 6.37 22.67 13.98 20.42 3.36-.99 6.27 2.8 8.02 4.65l.57.28c1.97 1.06 3.63 2.67 5.3 4.12l1.38 1.17.75.59c.19.78.31 1.49.39 2.15l1.98-.8c1.75 2.96 6.2 8.34 1.47 11.46 1.18.54 2.48 1.12 3.85 1.79 4.61-.97 6.54-5.67 13.32-4.74l5.72-3.42 4.27-.32-1.12-.27c5.2-.44 11.21-3.09 15.2-6.48 11.34-9.67 19.32 5.2 12.49 15.31l-.72 3.91c-.05 3.67-5.2 10.66-7.27 13.65-.57 4.21-3.33 7.18-5.44 11.19-2.85 14.86-40.28 46.35-52.45 61.88-1.4 4.32-8.3 12.78-11.14 16.73-2.94 4.12-6.07 8.99-9.75 16.77 4.84 5.12 2.25 12.23 2 18.35v.57c8.27 6.92 11.76 41.45 7.09 47.61l-2.67 3.52c-.44 2.05-1.92 3.03-3.29 4.4-.7 2.89-4.39 5.77-6.68 7.13l-13.61 8.52-.3.44c-1.47 1.98-3.14 5.54-5.85 6.73-2.18 3.02-6.63 5.44-9.3 8.37l-.42.72-.32-1.99.65 1.36c2.01 4.39 3.24 9.03 4.72 13.62l-.78-.35 1.63 5.16-1.14 3.82c1.92 3.56-1.01 7.2-3.29 9.83l-1.26 1.03c-4.55 2.58-8.6 6.57-13.73 7.58-.99.9-1.89 1.95-2.69 3 .2-1.16-.04-1.99-.54-3.11l-6.48.86c2.31-3.96 8.94-7.86 9.73.62.63 6.71-3.33 21.63-10.11 25.35l-12.87 18.17c-1.42 2-6.66 2.3-9.03 4.03-8.35 6.13-13.12 16.64-23.53 20.11-1.7 1.05-2.64.96-4.29 1.51l-3.13 1.83-7.5-.15-.92.58-1.26.55c-8.31 2.34-13.9 3.34-21.45 8.14-2.12 1.34-6.55.16-8.28-.14l-3.64-5.89c.42.74.54 1.6.25 2.54l.75.74c-2.98.51-6.07-1.65-7.12-4.32-.73-.95-2.52-2.92-3.32-4.44-2.79-2.92-1.27-6.93 1.67-8.79-2.4-2.38-18.83-28.21-20.21-32.47l.41-.62c-1.57-3.36-4.6-27.06-4.51-27.32-15.08-25.64-21.68-40.5-8.46-65.71 5.54-10.58 6.51-18.69 4.21-30.93-.85-1.83-7.67-16.62-7.75-17.55-.83-1.5-.65-2.39-.34-4.06-3.97-8.02-18.3-14.64-19.5-20.46-7-33.74 27.16 18.96 4.22 3.7-6.04-4.01-5.16-6.29-1.29-10.58l4.55 6.29c-6.09 3.03-7.34 0-10.04-5.03-3.49-7.14-.81-8.52 2.63-7.52l.91-1.86c-.1-3.54 1.32-6.65 5.63-5.39l1.96.04c-.76.74-1.43.74-2.04.71-3.91-.14 4.82 9.5 1.28 7.83-3.16-1.48-9.35-3.61-6.54-8.73l1.59-1.34c.55-1.38.92-2.12 1.92-3.2 1.74 4.22 1.65 4.02 3.34 8.1-9.97-.38-6.89-5.74-4.04-10.92l.24-.45c-.67-2.83.93-10.14-.92-11.94-4.51-1.7-21.16 10.72-28.39-2.49l-.36-.83c-1.32-4.1-.48-6.59 3.93-7.8l-2.67 2.54 3.66 5.82c-3.33-.43-5.22-1.55-7.53-3.77l-1.01-.99c-4.78-.16-11.43 1.81-17.19 4.33-4.82 7.99-27.11 13.1-34.92 13.17-10.1.09-4.23-8.87.5-9.82l-3.14 2.62c2.47-1.64 7.77 1.25 6.7 3.98l.62-.81c-3 4.87-4.93 4.15-10.72 4.75-1.14.43-2.45.81-3.96 1.1l-3.28.63c-9.82 1.94-6.67 11.35-24.65 6.78-9.52-2.41-19.14-10.27-28.64-14.49-9.28-.1-5.27-11.62 3.05-10.02 0 1.98-1.19 4.92-4.14 4.36.84.52 1.19 1.34 1.19 2.37l-1.24-.43c-3.45-1.1-6.79-3.02-6.66-7.39.15-4.69 3.75-5.39 7.31-4.05l-3.3.68 2 6.7 3.76-1.38c-5.82 7.11-10.57.86-9.34-4.95-5.69-6.57-18.86-8.99-12.5-20.66 2.72-1.14 6.03 3.71 4.6 6.36l1.01-.57-3.03 2.21-.67.43-8.38-2.07c-6.58-2.08-6.4-7.36-2.86-11.7-.58-.68-.99-1.46-1.17-2.32-.66-1.12-2.56-2.81-3.43-3.73-3.19-1.09-3.21-5.27-.86-7.22 10.29-8.5 8.85-23.09 8.79-34.83-3.02.82-6.4-1.96-6.27-4.69.52-9.06 6.29-16.43 10.67-23.93l.61-.82c-.66-2.56 1.1-3.95 3.23-4.31l2.48-2.57c3.77-10.97.49-9.18 10.05-16.35 4.01-11.83 19.72-15.2 26.4-25.82-2.34-5.18 1.67-11.28 3.71-16.07l.36.5.61-3.29c3.95-6.31 12.34-11.59 18.72-15.29 4.7-9.88 3.09-11.01 11-14.55 2.98-1.34 7.31 1.92 9.25 3.03 5-2.29 10.08-2.07 15.42-1.69l2.07-1.13c7.03-11.87 39.35-14.24 51.56-19.69 2.81-1.25 4.62-1.67 7.54-1.96 1.92-2.27 7.93-2.34 10.61-1.71" fill="#fff"/><path d="M1197.83 33.6c5.71-1.64 17.7-10.81 20.71.9.58 2.49.56 3.11.57 3.84l.75.77c6.8 4.27 4.2 10.26-.12 14.52l-.97.94c.73.26 1.45.56 2.14.94 8.48.12 17.12 2.18 25.58 1.18 1.86-.21 14.79 10.1 25.14 10.46l4.15-4.07c-1.95-6.24 7.97-13.99 12.69-16.51 3.42-1.82 14.44-2.3 17.22.61 2.32 2.43 5.96 1.43 8.92 1.02l5.44 4.15-.83-1.54-.61-.41c4.44 1.12 12.89-3.1 18.41-.15 2.02-.03 4.06-.01 6.05.38.33-.23 3.97-3.25 5.98-3.75 1.59-1.65 2.94-2.29 5.23-2.56 2.34-1.34 10.46-1.46 12.69.06l1.85.55c1.65-.74 3.1-1.05 4.35-.82 12.12-4.92 10.75.32 15.59 12.39 1.05 2.63-4.93 24-12.42 18.62-2.22-1.6-10.73-5.71-8.62-10.78.01-.04-.2-1.6-1.5-2.03.9-1.98 3.27-1.9 4.59-1.47-.39-.57-1.05-1.76-.58-2.78 1.23 1.83 2.45 2.06 2.92 4.75l4.82 4.92c3.68 3.73 1.1 8.51-2.86 8.46l2.89-6.14c2.38 3.54 3.74 4.34 3.89 8.03 2.19 3.43 6.47 12.27 9.48 13.74 4.46 2.18 4.34 6.77 1.03 8.48l.45.89c3.1 1.95 9.87 1.65 8.28 8.18 3.12 8.51-.25 17.37 7.86 19.79 6.69 1.99 6.37 22.67 13.98 20.42 3.36-.99 6.27 2.8 8.02 4.65l.57.28c1.97 1.06 3.63 2.67 5.3 4.12l1.38 1.17.75.59c.19.78.31 1.49.39 2.15l1.98-.8c1.75 2.96 6.2 8.34 1.47 11.46 1.18.54 2.48 1.12 3.85 1.79 4.61-.97 6.54-5.67 13.32-4.74l5.72-3.42 4.27-.32-1.12-.27c5.2-.44 11.21-3.09 15.2-6.48 11.34-9.67 19.32 5.2 12.49 15.31l-.72 3.91c-.05 3.67-5.2 10.66-7.27 13.65-.57 4.21-3.33 7.18-5.44 11.19-2.85 14.86-40.28 46.35-52.45 61.88-1.4 4.32-8.3 12.78-11.14 16.73-2.94 4.12-6.07 8.99-9.75 16.77 4.84 5.12 2.25 12.23 2 18.35v.57c8.27 6.92 11.76 41.45 7.09 47.61l-2.67 3.52c-.44 2.05-1.92 3.03-3.29 4.4-.7 2.89-4.39 5.77-6.68 7.13l-13.61 8.52-.3.44c-1.47 1.98-3.14 5.54-5.85 6.73-2.18 3.02-6.63 5.44-9.3 8.37l-.42.72-.32-1.99.65 1.36c2.01 4.39 3.24 9.03 4.72 13.62l-.78-.35 1.63 5.16-1.14 3.82c1.92 3.56-1.01 7.2-3.29 9.83l-1.26 1.03c-4.55 2.58-8.6 6.57-13.73 7.58-.99.9-1.89 1.95-2.69 3 .2-1.16-.04-1.99-.54-3.11l-6.48.86c2.31-3.96 8.94-7.86 9.73.62.63 6.71-3.33 21.63-10.11 25.35l-12.87 18.17c-1.42 2-6.66 2.3-9.03 4.03-8.35 6.13-13.12 16.64-23.53 20.11-1.7 1.05-2.64.96-4.29 1.51l-3.13 1.83-7.5-.15-.92.58-1.26.55c-8.31 2.34-13.9 3.34-21.45 8.14-2.12 1.34-6.55.16-8.28-.14l-3.64-5.89c.42.74.54 1.6.25 2.54l.75.74c-2.98.51-6.07-1.65-7.12-4.32-.73-.95-2.52-2.92-3.32-4.44-2.79-2.92-1.27-6.93 1.67-8.79-2.4-2.38-18.83-28.21-20.21-32.47l.41-.62c-1.57-3.36-4.6-27.06-4.51-27.32-15.08-25.64-21.68-40.5-8.46-65.71 5.54-10.58 6.51-18.69 4.21-30.93-.85-1.83-7.67-16.62-7.75-17.55-.83-1.5-.65-2.39-.34-4.06-3.97-8.02-18.3-14.64-19.5-20.46-7-33.74 27.16 18.96 4.22 3.7-6.04-4.01-5.16-6.29-1.29-10.58l4.55 6.29c-6.09 3.03-7.34 0-10.04-5.03-3.49-7.14-.81-8.52 2.63-7.52l.91-1.86c-.1-3.54 1.32-6.65 5.63-5.39l1.96.04c-.76.74-1.43.74-2.04.71-3.91-.14 4.82 9.5 1.28 7.83-3.16-1.48-9.35-3.61-6.54-8.73l1.59-1.34c.55-1.38.92-2.12 1.92-3.2 1.74 4.22 1.65 4.02 3.34 8.1-9.97-.38-6.89-5.74-4.04-10.92l.24-.45c-.67-2.83.93-10.14-.92-11.94-4.51-1.7-21.16 10.72-28.39-2.49l-.36-.83c-1.32-4.1-.48-6.59 3.93-7.8l-2.67 2.54 3.66 5.82c-3.33-.43-5.22-1.55-7.53-3.77l-1.01-.99c-4.78-.16-11.43 1.81-17.19 4.33-4.82 7.99-27.11 13.1-34.92 13.17-10.1.09-4.23-8.87.5-9.82l-3.14 2.62c2.47-1.64 7.77 1.25 6.7 3.98l.62-.81c-3 4.87-4.93 4.15-10.72 4.75-1.14.43-2.45.81-3.96 1.1l-3.28.63c-9.82 1.94-6.67 11.35-24.65 6.78-9.52-2.41-19.14-10.27-28.64-14.49-9.28-.1-5.27-11.62 3.05-10.02 0 1.98-1.19 4.92-4.14 4.36.84.52 1.19 1.34 1.19 2.37l-1.24-.43c-3.45-1.1-6.79-3.02-6.66-7.39.15-4.69 3.75-5.39 7.31-4.05l-3.3.68 2 6.7 3.76-1.38c-5.82 7.11-10.57.86-9.34-4.95-5.69-6.57-18.86-8.99-12.5-20.66 2.72-1.14 6.03 3.71 4.6 6.36l1.01-.57-3.03 2.21-.67.43-8.38-2.07c-6.58-2.08-6.4-7.36-2.86-11.7-.58-.68-.99-1.46-1.17-2.32-.66-1.12-2.56-2.81-3.43-3.73-3.19-1.09-3.21-5.27-.86-7.22 10.29-8.5 8.85-23.09 8.79-34.83-3.02.82-6.4-1.96-6.27-4.69.52-9.06 6.29-16.43 10.67-23.93l.61-.82c-.66-2.56 1.1-3.95 3.23-4.31l2.48-2.57c3.77-10.97.49-9.18 10.05-16.35 4.01-11.83 19.72-15.2 26.4-25.82-2.34-5.18 1.67-11.28 3.71-16.07l.36.5.61-3.29c3.95-6.31 12.34-11.59 18.72-15.29 4.7-9.88 3.09-11.01 11-14.55 2.98-1.34 7.31 1.92 9.25 3.03 5-2.29 10.08-2.07 15.42-1.69l2.07-1.13c7.03-11.87 39.35-14.24 51.56-19.69 2.81-1.25 4.62-1.67 7.54-1.96 1.92-2.27 7.93-2.34 10.61-1.71z" fill="none" stroke="#fff" stroke-miterlimit="10"/><path d="M1183.75 36.17c5.71-1.64 17.7-10.8 20.71.9.58 2.49.56 3.12.57 3.84l.75.77c6.8 4.27 4.2 10.27-.12 14.53l-.97.93c.73.26 1.45.56 2.14.94 8.48.12 17.12 2.16 25.59 1.17 1.85-.21 14.78 10.1 25.13 10.46l4.15-4.07c-1.95-6.24 7.98-14 12.7-16.51 3.42-1.82 14.44-2.3 17.22.6 2.32 2.44 5.95 1.44 8.92 1.03l5.43 4.15-.83-1.55-.61-.4c4.43 1.12 12.89-3.11 18.41-.16 2.02-.03 4.06 0 6.05.38.34-.22 3.97-3.26 5.98-3.74 1.59-1.66 2.94-2.29 5.23-2.56 2.34-1.34 10.47-1.47 12.69.04l1.85.56c1.64-.74 3.1-1.04 4.34-.81 12.12-4.92 10.75.32 15.59 12.38 1.05 2.63-4.93 24-12.42 18.62-2.22-1.6-10.74-5.7-8.62-10.78.01-.03-.2-1.6-1.5-2.03.9-1.99 3.27-1.91 4.59-1.48-.39-.57-1.05-1.76-.58-2.78 1.24 1.83 2.45 2.05 2.93 4.74l4.82 4.92c3.67 3.74 1.09 8.51-2.87 8.46l2.89-6.13c2.38 3.54 3.74 4.33 3.89 8.02 2.19 3.44 6.47 12.28 9.48 13.75 4.46 2.18 4.35 6.77 1.03 8.48l.44.9c3.11 1.94 9.86 1.65 8.28 8.17 3.12 8.51-.24 17.37 7.86 19.79 6.69 1.98 6.36 22.66 13.98 20.42 3.35-1 6.26 2.79 8.01 4.64l.58.28c1.96 1.07 3.64 2.67 5.29 4.12l1.38 1.18.75.58c.18.78.31 1.49.39 2.15l1.98-.81c1.75 2.96 6.2 8.35 1.47 11.47 1.18.54 2.48 1.12 3.86 1.79 4.61-.97 6.53-5.66 13.32-4.75l5.71-3.41 4.27-.32-1.12-.27c5.2-.45 11.22-3.09 15.2-6.48 11.34-9.68 19.32 5.2 12.49 15.31l-.72 3.91c-.05 3.67-5.2 10.66-7.27 13.65-.58 4.21-3.33 7.19-5.44 11.19-2.85 14.87-40.28 46.37-52.46 61.89-1.39 4.33-8.3 12.78-11.14 16.73-2.94 4.12-6.07 8.99-9.75 16.77 4.83 5.13 2.25 12.23 2 18.35v.56c8.27 6.93 11.77 41.46 7.09 47.62l-2.67 3.53c-.44 2.05-1.92 3.03-3.29 4.4-.7 2.89-4.38 5.76-6.68 7.12l-13.61 8.52-.3.44c-1.47 1.98-3.15 5.53-5.85 6.72-2.18 3.01-6.63 5.45-9.3 8.36l-.43.73-.32-1.99.65 1.36c2.01 4.39 3.24 9.03 4.73 13.62l-.79-.34 1.63 5.15-1.14 3.82c1.92 3.56-1.01 7.2-3.29 9.83l-1.26 1.03c-4.55 2.58-8.6 6.57-13.73 7.59-.99.9-1.89 1.94-2.69 3 .2-1.17-.04-2-.54-3.12l-6.49.86c2.31-3.96 8.94-7.86 9.73.62.63 6.71-3.33 21.63-10.11 25.35l-12.87 18.18c-1.41 2-6.66 2.31-9.03 4.03-8.35 6.13-13.12 16.64-23.53 20.11-1.69 1.05-2.64.96-4.29 1.51l-3.13 1.84-7.49-.15-.91.58-1.27.55c-8.32 2.34-13.91 3.34-21.46 8.14-2.12 1.35-6.55.15-8.28-.13l-3.64-5.89c.42.74.55 1.6.25 2.54l.75.74c-2.98.52-6.07-1.65-7.12-4.32-.73-.94-2.51-2.92-3.31-4.45-2.8-2.92-1.28-6.92 1.67-8.79-2.4-2.38-18.83-28.2-20.21-32.47l.41-.62c-1.58-3.36-4.6-27.05-4.52-27.32-15.07-25.64-21.68-40.49-8.46-65.71 5.55-10.58 6.51-18.69 4.21-30.94-.85-1.82-7.67-16.62-7.75-17.55-.83-1.5-.65-2.38-.34-4.06-3.97-8.03-18.3-14.64-19.5-20.46-7-33.76 27.16 18.95 4.22 3.7-6.04-4.02-5.16-6.3-1.29-10.57l4.55 6.28c-6.09 3.03-7.34 0-10.04-5.02-3.5-7.15-.82-8.53 2.62-7.53l.91-1.85c-.09-3.54 1.32-6.65 5.63-5.39l1.95.04c-.76.74-1.42.74-2.04.71-3.91-.15 4.82 9.5 1.28 7.84-3.16-1.49-9.35-3.62-6.54-8.73l1.59-1.34c.55-1.38.92-2.12 1.92-3.2 1.74 4.22 1.66 4.02 3.34 8.1-9.97-.37-6.9-5.74-4.04-10.91l.24-.45c-.68-2.83.92-10.13-.92-11.92-4.52-1.71-21.17 10.71-28.4-2.49l-.36-.82c-1.32-4.1-.48-6.6 3.93-7.81l-2.67 2.54 3.65 5.82c-3.33-.43-5.22-1.55-7.53-3.78l-1.01-.98c-4.78-.16-11.43 1.81-17.19 4.33-4.82 7.99-27.1 13.11-34.92 13.17-10.1.08-4.23-8.87.5-9.82l-3.14 2.63c2.46-1.65 7.77 1.24 6.7 3.97l.62-.81c-3 4.87-4.93 4.15-10.72 4.74-1.14.44-2.45.81-3.95 1.12l-3.29.63c-9.83 1.95-6.68 11.35-24.65 6.78-9.52-2.41-19.14-10.27-28.64-14.5-9.27-.1-5.27-11.61 3.05-10.01 0 1.97-1.19 4.92-4.14 4.35.85.54 1.2 1.34 1.2 2.38l-1.25-.43c-3.45-1.1-6.79-3.02-6.66-7.38.15-4.69 3.75-5.39 7.31-4.06l-3.3.68 2 6.71 3.76-1.38c-5.82 7.1-10.57.86-9.34-4.96-5.69-6.57-18.86-8.98-12.5-20.67 2.73-1.14 6.04 3.72 4.6 6.36l1.01-.57-3.03 2.22-.67.42-8.38-2.07c-6.59-2.08-6.4-7.36-2.86-11.7a5.27 5.27 0 0 1-1.17-2.32c-.65-1.11-2.56-2.8-3.43-3.73-3.19-1.09-3.22-5.27-.85-7.22 10.28-8.5 8.84-23.09 8.79-34.83-3.03.83-6.41-1.95-6.27-4.69.52-9.06 6.29-16.43 10.67-23.93l.61-.83c-.66-2.56 1.1-3.94 3.23-4.31l2.48-2.56c3.76-10.97.49-9.19 10.06-16.35 4.01-11.83 19.72-15.2 26.4-25.82-2.34-5.18 1.67-11.28 3.71-16.07l.36.5.61-3.29c3.95-6.31 12.34-11.58 18.72-15.29 4.7-9.88 3.1-11.01 11-14.56 2.98-1.34 7.31 1.92 9.25 3.03 5-2.29 10.08-2.07 15.42-1.68l2.07-1.13c7.03-11.87 39.35-14.25 51.56-19.7 2.81-1.25 4.62-1.66 7.53-1.96 1.92-2.27 7.93-2.34 10.61-1.71" fill="#fff"/><path d="M1183.75 36.17c5.71-1.64 17.7-10.8 20.71.9.58 2.49.56 3.12.57 3.84l.75.77c6.8 4.27 4.2 10.27-.12 14.53l-.97.93c.73.26 1.45.56 2.14.94 8.48.12 17.12 2.16 25.59 1.17 1.85-.21 14.78 10.1 25.13 10.46l4.15-4.07c-1.95-6.24 7.98-14 12.7-16.51 3.42-1.82 14.44-2.3 17.22.6 2.32 2.44 5.95 1.44 8.92 1.03l5.43 4.15-.83-1.55-.61-.4c4.43 1.12 12.89-3.11 18.41-.16 2.02-.03 4.06 0 6.05.38.34-.22 3.97-3.26 5.98-3.74 1.59-1.66 2.94-2.29 5.23-2.56 2.34-1.34 10.47-1.47 12.69.04l1.85.56c1.64-.74 3.1-1.04 4.34-.81 12.12-4.92 10.75.32 15.59 12.38 1.05 2.63-4.93 24-12.42 18.62-2.22-1.6-10.74-5.7-8.62-10.78.01-.03-.2-1.6-1.5-2.03.9-1.99 3.27-1.91 4.59-1.48-.39-.57-1.05-1.76-.58-2.78 1.24 1.83 2.45 2.05 2.93 4.74l4.82 4.92c3.67 3.74 1.09 8.51-2.87 8.46l2.89-6.13c2.38 3.54 3.74 4.33 3.89 8.02 2.19 3.44 6.47 12.28 9.48 13.75 4.46 2.18 4.35 6.77 1.03 8.48l.44.9c3.11 1.94 9.86 1.65 8.28 8.17 3.12 8.51-.24 17.37 7.86 19.79 6.69 1.98 6.36 22.66 13.98 20.42 3.35-1 6.26 2.79 8.01 4.64l.58.28c1.96 1.07 3.64 2.67 5.29 4.12l1.38 1.18.75.58c.18.78.31 1.49.39 2.15l1.98-.81c1.75 2.96 6.2 8.35 1.47 11.47 1.18.54 2.48 1.12 3.86 1.79 4.61-.97 6.53-5.66 13.32-4.75l5.71-3.41 4.27-.32-1.12-.27c5.2-.45 11.22-3.09 15.2-6.48 11.34-9.68 19.32 5.2 12.49 15.31l-.72 3.91c-.05 3.67-5.2 10.66-7.27 13.65-.58 4.21-3.33 7.19-5.44 11.19-2.85 14.87-40.28 46.37-52.46 61.89-1.39 4.33-8.3 12.78-11.14 16.73-2.94 4.12-6.07 8.99-9.75 16.77 4.83 5.13 2.25 12.23 2 18.35v.56c8.27 6.93 11.77 41.46 7.09 47.62l-2.67 3.53c-.44 2.05-1.92 3.03-3.29 4.4-.7 2.89-4.38 5.76-6.68 7.12l-13.61 8.52-.3.44c-1.47 1.98-3.15 5.53-5.85 6.72-2.18 3.01-6.63 5.45-9.3 8.36l-.43.73-.32-1.99.65 1.36c2.01 4.39 3.24 9.03 4.73 13.62l-.79-.34 1.63 5.15-1.14 3.82c1.92 3.56-1.01 7.2-3.29 9.83l-1.26 1.03c-4.55 2.58-8.6 6.57-13.73 7.59-.99.9-1.89 1.94-2.69 3 .2-1.17-.04-2-.54-3.12l-6.49.86c2.31-3.96 8.94-7.86 9.73.62.63 6.71-3.33 21.63-10.11 25.35l-12.87 18.18c-1.41 2-6.66 2.31-9.03 4.03-8.35 6.13-13.12 16.64-23.53 20.11-1.69 1.05-2.64.96-4.29 1.51l-3.13 1.84-7.49-.15-.91.58-1.27.55c-8.32 2.34-13.91 3.34-21.46 8.14-2.12 1.35-6.55.15-8.28-.13l-3.64-5.89c.42.74.55 1.6.25 2.54l.75.74c-2.98.52-6.07-1.65-7.12-4.32-.73-.94-2.51-2.92-3.31-4.45-2.8-2.92-1.28-6.92 1.67-8.79-2.4-2.38-18.83-28.2-20.21-32.47l.41-.62c-1.58-3.36-4.6-27.05-4.52-27.32-15.07-25.64-21.68-40.49-8.46-65.71 5.55-10.58 6.51-18.69 4.21-30.94-.85-1.82-7.67-16.62-7.75-17.55-.83-1.5-.65-2.38-.34-4.06-3.97-8.03-18.3-14.64-19.5-20.46-7-33.76 27.16 18.95 4.22 3.7-6.04-4.02-5.16-6.3-1.29-10.57l4.55 6.28c-6.09 3.03-7.34 0-10.04-5.02-3.5-7.15-.82-8.53 2.62-7.53l.91-1.85c-.09-3.54 1.32-6.65 5.63-5.39l1.95.04c-.76.74-1.42.74-2.04.71-3.91-.15 4.82 9.5 1.28 7.84-3.16-1.49-9.35-3.62-6.54-8.73l1.59-1.34c.55-1.38.92-2.12 1.92-3.2 1.74 4.22 1.66 4.02 3.34 8.1-9.97-.37-6.9-5.74-4.04-10.91l.24-.45c-.68-2.83.92-10.13-.92-11.92-4.52-1.71-21.17 10.71-28.4-2.49l-.36-.82c-1.32-4.1-.48-6.6 3.93-7.81l-2.67 2.54 3.65 5.82c-3.33-.43-5.22-1.55-7.53-3.78l-1.01-.98c-4.78-.16-11.43 1.81-17.19 4.33-4.82 7.99-27.1 13.11-34.92 13.17-10.1.08-4.23-8.87.5-9.82l-3.14 2.63c2.46-1.65 7.77 1.24 6.7 3.97l.62-.81c-3 4.87-4.93 4.15-10.72 4.74-1.14.44-2.45.81-3.95 1.12l-3.29.63c-9.83 1.95-6.68 11.35-24.65 6.78-9.52-2.41-19.14-10.27-28.64-14.5-9.27-.1-5.27-11.61 3.05-10.01 0 1.97-1.19 4.92-4.14 4.35.85.54 1.2 1.34 1.2 2.38l-1.25-.43c-3.45-1.1-6.79-3.02-6.66-7.38.15-4.69 3.75-5.39 7.31-4.06l-3.3.68 2 6.71 3.76-1.38c-5.82 7.1-10.57.86-9.34-4.96-5.69-6.57-18.86-8.98-12.5-20.67 2.73-1.14 6.04 3.72 4.6 6.36l1.01-.57-3.03 2.22-.67.42-8.38-2.07c-6.59-2.08-6.4-7.36-2.86-11.7a5.27 5.27 0 0 1-1.17-2.32c-.65-1.11-2.56-2.8-3.43-3.73-3.19-1.09-3.22-5.27-.85-7.22 10.28-8.5 8.84-23.09 8.79-34.83-3.03.83-6.41-1.95-6.27-4.69.52-9.06 6.29-16.43 10.67-23.93l.61-.83c-.66-2.56 1.1-3.94 3.23-4.31l2.48-2.56c3.76-10.97.49-9.19 10.06-16.35 4.01-11.83 19.72-15.2 26.4-25.82-2.34-5.18 1.67-11.28 3.71-16.07l.36.5.61-3.29c3.95-6.31 12.34-11.58 18.72-15.29 4.7-9.88 3.1-11.01 11-14.56 2.98-1.34 7.31 1.92 9.25 3.03 5-2.29 10.08-2.07 15.42-1.68l2.07-1.13c7.03-11.87 39.35-14.25 51.56-19.7 2.81-1.25 4.62-1.66 7.53-1.96 1.92-2.27 7.93-2.34 10.61-1.71z" fill="none" stroke="#fff" stroke-miterlimit="10"/><g fill="#fff"><path d="M253.38 348.56c-2.57.51-4.75 0-6.24-1.24-2.38 7.17-10.98 7.08-13.3-1.07-1.93-6.83-5-8.46-11.31-7.1-25.87 5.07-52.27 38.22-55.53 60.93l-7.52 53.11c-3.03 21.6 13.53 42.43 36.69 38.09 7.72-2.3 14.22-7.68 19.38-17.13 2.98-5.43 8.33-5.82 11.26-2.78 1.19-1.59 2.96-3.04 4.32-3.31l33.57-6.64c5.44-1.08 9.12 2.4 8.35 7.87l-11.93 86.13c-.3 2.17-3.47 5.53-5.62 5.95l-33.65 6.65c-2.45.48-4.54.04-6.03-1.07-1.19 1.72-3.16 3.36-4.67 3.63C114 588.21 92.39 511.87 103.33 434.11c11.29-78.72 54.8-162.42 148.06-182.08 2.92-.61 5.33.08 6.84 1.7 1.05-1.92 3.37-4.11 5-4.45 1.58-.34 33.59-6.69 33.59-6.69 5.48-1.09 9.16 2.41 8.34 7.95l-12.65 85.52c-.31 2.13-3.49 5.46-5.6 5.88l-33.54 6.64z"/><path d="m285.55 335.02-33.54 6.64 12.68-85.49c1.57-.32 33.5-6.68 33.5-6.68l-12.65 85.54zM197.83 498.14c10-2.86 17.97-9.73 23.91-20.59l-11.85 86.1c-88.84 16.13-110.45-51.23-99.57-128.53 11.09-77.37 53.47-157.41 142.54-176.19l-12.23 85.4c-2.91-10.24-9.41-14.26-19.52-12.05-29.32 5.74-57.48 41.68-61.08 66.83l-7.53 53.12c-3.52 25.11 15.98 51.68 45.33 45.92M232.51 474.99l33.57-6.64-11.93 86.13s-32.05 6.34-33.66 6.64z"/><path d="M364.38 448.54c-3.71 9.35-8.3 19.8-8.3 19.8l12.27-2.49zm-20.6-80.7c.47-1.02 3.9-3.74 5-3.94l51.71-10.46c3.54-.71 7.46 1.8 8.26 5.32l36.34 157.72c.88 3.79-1.65 7.72-5.47 8.48l-49.51 10.01c-3.6.72-7.5-1.82-8.28-5.42l-2.34-10.77-50.11 10.12-7.39 16.79c-.48 1.08-3.9 3.83-5.05 4.07l-49.52 10.01c-6.98 1.41-10.78-3.4-7.8-9.87l84.17-182.06zM467.27 339.27c.29-2.12 3.44-5.4 5.58-5.83l45.86-9.03c5.42-1.07 9.12 2.32 8.39 7.68l-15.31 112.48 51.77-10.19c6.63-1.31 10.39 3.02 7.99 9.21l-17.91 46.1c-.47 1.23-3.87 4.04-5.19 4.29l-95.36 18.77c-5.41 1.07-9.11-2.31-8.38-7.66l22.57-165.81zM589.03 321.52c.29-2.12 3.43-5.4 5.58-5.83l45.85-9.02c5.42-1.08 9.11 2.31 8.39 7.66l-15.32 112.48 51.78-10.19c6.62-1.31 10.38 3.03 7.98 9.2l-17.9 46.11c-.47 1.22-3.87 4.03-5.19 4.3l-95.36 18.78c-5.42 1.06-9.11-2.33-8.39-7.68l22.57-165.8zM740.54 286.72c.28-2.19 3.45-5.54 5.6-5.98l46.35-9.25c5.41-1.07 9.09 2.38 8.36 7.85l-6.72 50.27 23.86-4.76 7.36-55.05c.3-2.18 3.45-5.55 5.61-5.98l46.35-9.24c5.4-1.07 9.09 2.38 8.36 7.84l-22.94 171.53c-.29 2.2-3.45 5.56-5.6 5.98l-46.35 9.24c-5.41 1.08-9.1-2.37-8.37-7.85l7.42-55.5-23.85 4.75-8.06 60.3c-.3 2.18-3.45 5.54-5.61 5.98l-46.35 9.24c-5.41 1.07-9.1-2.4-8.36-7.85l22.94-171.54zM982.47 288.81c-21.04 4.2-41.32 25.37-44.15 46.61-2.58 19.32 10.29 31.12 29.66 27.25 21.21-4.23 41.42-26.24 44.14-46.61 2.48-18.56-10.24-31.12-29.66-27.25m-17.91 133.9c-53.96 10.77-94.89-24.79-87.55-79.72 7.08-52.9 56.49-103.78 108.88-114.21 53.96-10.76 94.89 24.8 87.55 79.71-7.08 52.91-56.49 103.78-108.88 114.22M1129.78 329.46c-4.16 19.69-13.76 54.9-13.76 54.9-.44 1.62-3.77 4.73-5.42 5.05l-47.34 9.44c-6.12 1.22-9.82-2.74-8.17-8.76l48.33-176.61c.45-1.61 3.77-4.73 5.42-5.05l36.98-7.37c2.92-.58 6.95 1.68 7.99 4.46l17.11 46.22 33.76-59.9c.45-.8 3.87-3.27 4.76-3.46l36.99-7.37c4.66-.92 8.37 2.1 8.41 6.86l1.47 166.66c.02 2.82-2.89 6.42-5.67 6.97l-47.34 9.44c-4.63.92-8.36-2.1-8.42-6.81l-.6-44.66c-12.03 22.29-32.75 58.49-32.75 58.49-3.63 6.34-9.94 5.89-12.65-.88zM1281.01 178.97c.3-2.18 3.44-5.54 5.6-5.98l95.18-18.97c4.57-.91 8.3 2.08 8.41 6.74l1.1 43.84c.07 2.89-2.82 6.51-5.67 7.07l-51.03 10.18-.41 3.1 26.82-5.35c5.41-1.08 9.09 2.38 8.36 7.85l-6.05 45.27c-.3 2.18-3.45 5.55-5.61 5.98l-31.56 6.29-.42 3.1 52.47-10.46c6.62-1.31 10.37 3.11 7.97 9.41l-18.14 47.69c-.47 1.26-3.88 4.14-5.2 4.4l-96.4 19.23c-5.41 1.07-9.1-2.38-8.37-7.85L1281 178.97z" fill-rule="evenodd"/><path d="m376.83 471.32-32.68 6.61 22.15-50.34.49-.1 10.04 43.82zm-110.82 81.55 49.52-10.01 8.86-20.13 60.5-12.22 3.82 17.57 49.52-10.02-36.35-157.7-51.71 10.44zM573.44 488.24l95.36-18.76 17.91-46.11-61.46 12.1 16.62-122.07-45.86 9.04zM724.59 459.19l46.35-9.24 8.73-65.28 38.46-7.67-8.73 65.28 46.35-9.24 22.94-171.54-46.34 9.25-8.04 60.03-38.46 7.67 8.03-60.04-46.36 9.24zM1019.11 316.99c-3.12 23.36-25.59 47.78-49.76 52.59-23.91 4.77-41.27-10.78-38.02-35.08 3.25-24.31 25.84-47.82 49.76-52.59 24.16-4.82 41.14 11.74 38.02 35.08m47.34-9.44c6.66-49.8-29.63-81.76-79.19-71.86-49.56 9.88-96.61 58.45-103.27 108.23-6.66 49.8 29.62 81.76 79.19 71.88 49.55-9.88 96.61-58.45 103.27-108.24M1061.88 391.94l47.34-9.44 19.79-72.58.49-.09 25.92 64.63 45.1-78.8.48-.1.92 68.46 47.35-9.43-1.46-166.68-37 7.37-41.21 73.16-22.39-60.47-36.98 7.38zM1265.05 351.45l96.4-19.22 18.14-47.68-62.14 12.39 2.4-17.87 36.48-7.27 6.06-45.28-36.49 7.28 2.38-17.87 55.98-11.16-1.1-43.84-95.18 18.98z" fill-rule="evenodd"/></g><path d="M1211.53 32.67c2.28.14 3.67.28 4.1 2.65l.35.75s-.1 3 .25 4.01c.79 2.28 5.05 2.2 4.51 5.58-.34 2.16-4.74 5.73-6.29 6.98l-1.86 1.76c.87 3.36 6 3.12 8.61 5.2 9.1-.11 18.75 2.19 27.59 1.14 2.46 6.59 24.04 11.32 27.01 10.09l7.24-7.1-1.35-4.31c12.32-10.57 9.17-11.14 22.35-9.67 3.03 3.17 5.66 3.51 13.09 2.46.6 4.68 11.76.86 16.47 1.09.58.03 4.07.14 3.91 1.05 2.65-.04 5.95-.23 8.27.79l6.81-4.58.77.63 1.41-2.21c1.56-1.02 3.53-.38 5.16-1.24l-.49-.16 5.91-.07-.77 1.12 2.31 1.48 1.21-1.91 1.81 1.08c1.69.58 3.83-2.12 4.43-.42l7.23-2.94 4.66 11.63c-1.95 3.28-3.31 10.91-5.15 12.94l-7.01-5.02c1.44-3.42-1.36-7.48-4.44-8.47-.92-.3-2 2.24-1.47 3.02.59.87 2.92 2.26 1.92 3.83l6.4 6.51c-.81-.54.11 1.56-.54 1.64l3.29 4.93-.54 1.44c3.4 4.52 7.37 14.56 12.52 17.09l-2.04-.1c-1.38 1.95.63 5.98 1.35 7.37 1.41 2.74 5.7 2.55 7.99 4.53l-.54 1.45c1.14 3.35 1.97 4.76 2.36 8.4.96 8.99-.13 13.25 9.26 16.04 4.75 9.86 6.13 23.58 16.74 20.46l4.07 4.3c1.68-.38 9.51 8.5 8.85 5.7l2.97 5c-9.72 5.69-3.07 6.29 5.51 10.73 6.24.18 9.44-6.66 15.12-4.52l7.41-4.42c1.9.78 12.43-3.36 14.8-4.38 2.96-1.27 5.49-5.44 8.42-5.16 2.82.26 4.38 9.13.68 11.57l-.96 5.13c1.46.62-6.98 12.5-7.25 12.92l.17.76-5.59 10.62.07.72c-13.36 25.27-35.44 38.59-52.43 60.66l-.1.9c-7.18 12.35-13.27 15.78-22.45 36.54 8.92 2.27.38 17.56 4.54 20.42 8.77 6.05 7.95 37.9 6.86 41.47l-4.37 5.76.5.17c-.08.08-3.56 2.97-2.4 2.97.54 0-2.47 3.43-5.02 4.95l-14.86 9.29c-.1.08-1.61 1.22-.46.93l-4.15 5.56-1.07-.28-.23 1.25c-2.93 1.87-6 4.47-9.43 8.22.74-1.1-2.33 2.51-1.48 4.18 3.03 5.92 5.16 15.66 5.91 16.24l-1.92 6.46c0 .34 3.68-.55-1.54 5.42l-12.96 7.34c-.77-.72-5.66 5.14-5.79 5.86l1.81 1.78.79-1.35c.38 4.07-2.8 19.41-8.49 21.06l-13.65 19.29c-11.37-.25-19.12 19.18-30.72 22.55l-1.85 1.14c-1.36.07-2.66-.13-3.45 1.8l-8.95-.17-2.14 1.34c-7.64 2.15-13.97 3.12-22.77 8.73l-4.91-.82c.61-1.97-2.67-3.07-4.64-2.71-.88.15-2.23-.72-1.31-1.38l-3.54-4.61.74-.31c-.05-.24-3.28-.9-.89-2.38.45-.27 1.97.63 3.01-2.74-4.27-10.1-20.74-30.74-21.48-36.31-.24.27.78.55.42-.2-1.7-3.63-.81-6.62-1.66-10.02-1.54-6.13-2.19-7.8-2.61-14.61l.87-.89c-38.82-64.61 4.07-50.94-5.12-98.11-2.75-5.71-3.91-10.61-7.39-15.83 3.9.12-.55-1.27-.91-2.85l.79-1.36c-3.12-10.18-19.38-18.42-20.03-21.56-.15-.77 2.8 1.07 2.18.67-3.04-2.03-2.76-.73-.39-3.35l-1.25.57-.62.22c-.92.28 1.08-2.35.8-2.21l-1.75.9-1.96-3.65c-.21-.43 1.99-1.45 1.34-.52l2.77-5.62-.07-2.45.95 1.32.23-.52c1.08-.19 1.79.52 2.92-.57l-4.39-2.05c.4-.74 1.33.67 2.1.54.76-.14-.06-3.11-.04-3.31l.77-.82-2.19-.08c.08-.43 4.79-7.03 2.9-7.19 3.25-33.41-22.42-2.53-29.83-16.05l-.45-1.4 1.07-.28.35-1.05c-3.18-.43-3.34-1.12-7.07-4.64-6.75-.97-16.24 2.18-22.99 5.35-1.43 6.64-25.21 11.95-31.35 11.99l1.5-.29-.86-1.46-1.16 1.89-8.87.92c3.87.19-5.6 1.48-7.06 2.04-4.85 1.9-9.42 8.3-14.07 7.52-4.17-.7-8.47-1.36-11.97-3.49-8.39-5.13-13.69-8.24-23.09-12.38l-2.02-.02 1.5-.9c.06-.01 3.2 1.14 3.2.06 0-3.13-6.81-2.16-6.71-5.31l.81.3 1.42-1.36-.99-.17-.69.83-.21-2.11 1.45-.4c-8.41-12.89-19.12-10.09-14.46-18.65l-1.47-.35-3.03 2.22c-1.25.63-.56-1.63-.63-1.63-2.84-.06-6.13-1.33-6.15-1.7-.19-2.53 3.82-4.76 4.16-7.38.17-1.32-2.64-.85-2.9-2.09-.28-1.39-2-3.24-4.85-6.28h-1.09c13.49-11.17 10.34-32.26 10.56-39.44.08-2.74-2.48-4.77-4.88-5.67-.67-.24-1.46 2.85-1.42 2.08.44-7.67 5.96-14.84 10.04-21.79.67-.74-.96-.89-.78-.19l7.1-7.32c1.52-3.76 1.44-7.1 3.72-11.35l6.37-4.76c2.91-12.41 19.14-11.58 28.09-29.29l-1.89-1.94c.08-4.42 5.11-12.46 4.84-13.86 3.53-5.65 12.94-11.35 18.36-14.44l5.72-12.01 3.57-1.59 7.22 4.16c5.52-3.58 11.15-2.65 16.59-2.3l4.7-2.58c2.44-8.95 42.79-15.6 49.89-18.78 4.85-2.16 4.6-1.05 8.73-2.03l2.13-.98-.61-.37 4.3-.06-.25.57c5.14-.3 9.09-3.45 13.98-5.38" fill="#293584" fill-rule="evenodd"/><path d="M204.75 381.36c.68-18.11 15.58-35.78 33.29-39.44l998.72-206.79c17.7-3.67 31.5 8.05 30.83 26.17l-7.98 212.58c-.67 18.11-15.58 35.76-33.29 39.43l-998.71 206.8c-17.71 3.67-31.51-8.05-30.83-26.16l7.97-212.58z" fill="#293584" fill-rule="evenodd"/></g><g clip-path="url(#e)"><path d="M169.51 24.44h1125.58V715.3H169.51z" fill="url(#f)" transform="rotate(-12.19 732.356 369.884)"/></g><g clip-path="url(#g)"><path d="m327.83 593-176.31 97c-20.45 11.27-40.36 10.21-54.29-.63 11.7 3.87 25.76 2.74 40.4-4.35l190.2-92.03zM122.47 246.4l180.81-99.49c20.98-11.54 41.38-10.46 55.68.64-12-3.96-26.42-2.79-41.43 4.47z" fill="#00aeef"/><path d="m300.98 601.29-185.47 78.04c-21.52 9.06-41.2 5.93-53.93-6.29 11.23 5.07 25.32 5.4 40.63-.1zM143.29 237.35l190.2-80.04c22.07-9.29 42.25-6.07 55.31 6.47-11.52-5.21-25.97-5.55-41.66.1l-203.85 73.48z" fill="#0072bc"/><path d="M220.86 546.82 90.98 586.1c-25.54 7.71-47.13.25-58.01-17.26 10.61 8.91 25.73 12.51 43.32 8.75zM237.21 208.76l122.66-37.08c21.63-6.53 40.43-2.17 52.29 9.96-9.47-4.4-21.08-5.62-34.04-2.87z" fill="#0054a6"/><path d="M413.32 513c-5.04 38.43-38.69 75.87-75.22 83.63L79.24 651.58c-27.11 5.76-61.54-20.81-56.97-55.56l35.7-272.6c5.04-38.44 38.71-75.89 75.22-83.64l258.86-54.95c31.42-6.68 61.05 24.49 56.98 55.56z" fill="#293584"/><path d="M406.26 509.42c-4.84 37-37.15 73.04-72.23 80.5l-248.6 52.91c-35.05 7.46-59.54-16.48-54.7-53.48l34.31-262.37c4.84-37.01 37.17-73.04 72.23-80.5l248.6-52.91c35.07-7.46 59.54 16.48 54.71 53.48l-34.31 262.38z" fill="#0b6b37"/></g><g clip-path="url(#h)"><path d="M-.02 204.85h470.74v432.78H-.02z" fill="url(#i)" transform="rotate(-88.24 235.354 421.244)"/></g><g clip-path="url(#j)"><path d="m376 209.55-232.6 49.5c-32.78 6.98-63.01 40.47-67.5 74.79l-19.25 147.2C175.24 456.62 315.34 339.34 420.31 312l6.92-52.94c4.49-34.33-18.43-56.49-51.23-49.52" fill="#82c341"/></g><g clip-path="url(#k)"><path d="M101.83 153.29h284.16v382.72H101.83z" fill="url(#l)" transform="rotate(-88.24 243.915 344.656)"/></g><g clip-path="url(#m)"><path d="M331.22 562.94 95.66 613.08c-27.55 5.88-48.25-8.36-51.94-32.97-4.1 33.93 18.75 55.75 51.31 48.82l232.59-49.51c32.58-6.93 62.6-40.01 67.39-74.09-10.52 27.63-36.24 51.75-63.8 57.61" fill="#98cb4f"/><path d="M1188.05 26.93c5.71-1.63 17.73-10.81 20.74.9.59 2.5.56 3.12.57 3.86l.76.78c6.81 4.27 4.2 10.28-.12 14.54l-.97.93c.74.27 1.45.57 2.14.94 8.5.12 17.15 2.18 25.63 1.18 1.86-.21 14.81 10.12 25.18 10.48l4.15-4.09c-1.96-6.25 7.99-14.01 12.73-16.52 3.42-1.83 14.45-2.3 17.22.6 2.33 2.44 5.97 1.44 8.94 1.02l5.45 4.16-.82-1.56-.62-.39c4.45 1.12 12.93-3.12 18.45-.15 2.02-.04 4.06-.02 6.05.38.34-.23 3.97-3.27 5.98-3.75 1.59-1.67 2.94-2.29 5.23-2.57 2.35-1.35 10.48-1.48 12.73.05l1.83.56c1.65-.74 3.12-1.03 4.36-.81 12.14-4.93 10.77.32 15.62 12.4 1.05 2.63-4.94 24.03-12.44 18.65-2.23-1.61-10.75-5.71-8.63-10.81.02-.03-.19-1.6-1.5-2.03.9-1.99 3.28-1.9 4.6-1.47-.4-.57-1.05-1.76-.58-2.79 1.24 1.83 2.45 2.06 2.92 4.76l4.83 4.92c3.68 3.74 1.1 8.52-2.87 8.47l2.91-6.14c2.37 3.54 3.74 4.34 3.89 8.02 2.19 3.46 6.47 12.31 9.49 13.77 4.46 2.19 4.36 6.78 1.03 8.49l.45.9c3.11 1.95 9.88 1.66 8.29 8.2 3.12 8.52-.24 17.4 7.87 19.82 6.69 1.99 6.37 22.69 14 20.45 3.35-1 6.27 2.8 8.02 4.65l.59.28c1.96 1.07 3.64 2.67 5.3 4.13l1.38 1.17.76.59c.18.78.31 1.5.39 2.15l1.99-.79c1.76 2.96 6.21 8.37 1.47 11.49 1.18.54 2.49 1.12 3.86 1.8 4.62-.97 6.56-5.67 13.35-4.76l5.72-3.43 4.27-.32-1.12-.27c5.22-.43 11.24-3.08 15.22-6.48 11.37-9.69 19.35 5.22 12.52 15.34l-.73 3.91c-.04 3.68-5.2 10.66-7.27 13.67-.59 4.21-3.34 7.21-5.45 11.23-2.85 14.89-40.34 46.42-52.54 61.97-1.39 4.33-8.31 12.8-11.15 16.76-2.94 4.12-6.07 9.01-9.76 16.78 4.84 5.15 2.25 12.27 2 18.39v.58c8.28 6.93 11.78 41.51 7.09 47.68l-2.68 3.54c-.43 2.05-1.92 3.03-3.29 4.41-.7 2.89-4.4 5.76-6.69 7.14l-13.63 8.52-.31.43c-1.47 1.99-3.14 5.55-5.85 6.75-2.18 3.01-6.64 5.44-9.32 8.37l-.43.73-.32-1.99.65 1.34c2 4.4 3.25 9.07 4.73 13.65l-.79-.35 1.64 5.16-1.14 3.83c1.92 3.56-1.01 7.22-3.3 9.84l-1.26 1.04c-4.56 2.58-8.62 6.59-13.75 7.58-.99.9-1.89 1.95-2.7 3.01.2-1.15-.04-2-.54-3.11l-6.49.87c2.32-3.98 8.95-7.89 9.76.62.63 6.71-3.34 21.66-10.13 25.38l-12.89 18.19c-1.42 2.02-6.68 2.3-9.04 4.05-8.36 6.13-13.14 16.64-23.57 20.13-1.69 1.05-2.65.96-4.29 1.5l-3.14 1.84-7.5-.16-.92.58-1.25.56c-8.34 2.35-13.93 3.35-21.5 8.15-2.12 1.36-6.57.16-8.29-.12l-3.65-5.92c.41.74.56 1.6.25 2.56l.75.72c-2.98.54-6.08-1.64-7.13-4.3-.73-.96-2.51-2.95-3.31-4.47-2.8-2.91-1.29-6.93 1.66-8.79-2.4-2.38-18.86-28.27-20.24-32.52l.41-.62c-1.58-3.36-4.6-27.09-4.53-27.35-15.1-25.68-21.71-40.57-8.48-65.82 5.55-10.61 6.53-18.72 4.23-30.99-.85-1.81-7.68-16.64-7.77-17.57-.84-1.51-.67-2.39-.34-4.06-3.98-8.05-18.33-14.65-19.53-20.5-7-33.81 27.2 18.98 4.23 3.71-6.05-4.02-5.17-6.31-1.29-10.59l4.56 6.29c-6.11 3.02-7.36 0-10.06-5.04-3.51-7.15-.83-8.54 2.63-7.54l.92-1.86c-.1-3.53 1.31-6.66 5.62-5.4l1.96.05c-.76.73-1.43.74-2.05.72-3.91-.16 4.83 9.5 1.28 7.83-3.17-1.49-9.37-3.62-6.55-8.75l1.6-1.34c.55-1.38.92-2.14 1.92-3.2 1.74 4.22 1.67 4.02 3.35 8.11-9.99-.38-6.91-5.75-4.05-10.92l.24-.47c-.68-2.82.92-10.14-.94-11.94-4.51-1.69-21.19 10.74-28.42-2.47l-.36-.84c-1.32-4.1-.48-6.6 3.93-7.82l-2.67 2.54 3.66 5.82c-3.33-.44-5.22-1.55-7.55-3.78l-1-.98c-4.79-.16-11.46 1.82-17.22 4.33-4.83 8.01-27.15 13.12-34.98 13.2-10.12.08-4.24-8.89.5-9.84l-3.13 2.63c2.45-1.64 7.77 1.25 6.69 3.98l.63-.8c-3.01 4.87-4.93 4.15-10.74 4.75-1.14.42-2.45.81-3.96 1.12l-3.29.63c-9.84 1.94-6.69 11.36-24.69 6.79-9.54-2.42-19.17-10.29-28.69-14.52-9.29-.1-5.27-11.63 3.06-10.03-.01 1.98-1.21 4.93-4.15 4.36.85.52 1.2 1.34 1.2 2.38l-1.25-.43c-3.46-1.12-6.8-3.04-6.67-7.41.14-4.69 3.76-5.39 7.33-4.06l-3.32.69 2.01 6.71 3.77-1.39c-5.82 7.11-10.59.88-9.35-4.96-5.69-6.59-18.89-8.99-12.52-20.7 2.73-1.13 6.05 3.73 4.6 6.37l1.01-.55-3.02 2.23-.68.41-8.39-2.08c-6.59-2.07-6.41-7.37-2.87-11.71-.57-.68-.97-1.47-1.16-2.34-.66-1.1-2.58-2.81-3.44-3.73-3.2-1.09-3.23-5.27-.87-7.23 10.29-8.51 8.86-23.13 8.81-34.89-3.03.83-6.42-1.96-6.29-4.69.52-9.08 6.3-16.45 10.69-23.97l.61-.83c-.66-2.56 1.1-3.94 3.25-4.31l2.48-2.57c3.76-11 .48-9.2 10.06-16.38 4.02-11.83 19.75-15.23 26.44-25.85-2.34-5.2 1.68-11.31 3.72-16.1l.36.51.62-3.3c3.95-6.33 12.36-11.59 18.75-15.31 4.71-9.88 3.1-11.02 11.02-14.58 2.98-1.35 7.31 1.92 9.26 3.03 5.02-2.29 10.1-2.08 15.44-1.69l2.07-1.13c7.04-11.89 39.42-14.26 51.64-19.72 2.82-1.27 4.64-1.68 7.55-1.97 1.93-2.26 7.95-2.34 10.63-1.71" fill="#293584"/><path d="M1200.11 23.85c2.28.14 3.67.28 4.1 2.66l.35.76s-.1 2.99.25 4c.79 2.28 5.05 2.2 4.51 5.59-.34 2.15-4.74 5.73-6.29 6.98l-1.86 1.76c.87 3.37 5.99 3.13 8.6 5.2 9.1-.11 18.75 2.19 27.59 1.15 2.47 6.59 24.05 11.32 27.01 10.1l7.24-7.11-1.35-4.3c12.32-10.57 9.19-11.13 22.34-9.68 3.04 3.18 5.67 3.51 13.09 2.47.6 4.67 11.76.85 16.47 1.08.57.02 4.07.16 3.91 1.05 2.65-.04 5.95-.23 8.27.78l6.81-4.56.77.61 1.43-2.2c1.56-1.03 3.51-.39 5.15-1.24l-.49-.14 5.91-.08-.76 1.14 2.3 1.46 1.22-1.9 1.82 1.07c1.69.57 3.83-2.12 4.43-.43l7.23-2.93 4.66 11.63c-1.95 3.28-3.31 10.92-5.15 12.93l-7-5.02c1.43-3.43-1.36-7.47-4.44-8.48-.92-.3-2 2.24-1.47 3.02.59.87 2.92 2.26 1.92 3.83l6.38 6.51c-.79-.54.12 1.57-.53 1.63l3.3 4.93-.53 1.43c3.39 4.53 7.37 14.56 12.52 17.09l-2.04-.1c-1.38 1.95.63 6 1.35 7.37 1.41 2.74 5.7 2.55 7.99 4.53l-.54 1.45c1.14 3.36 1.97 4.76 2.36 8.4.96 9.01-.13 13.25 9.26 16.04 4.76 9.87 6.14 23.58 16.74 20.46l4.07 4.31c1.68-.39 9.51 8.5 8.85 5.7l2.97 5.02c-9.72 5.67-3.07 6.27 5.51 10.71 6.24.18 9.43-6.65 15.13-4.51l7.41-4.43c1.9.78 12.43-3.36 14.8-4.37 2.96-1.28 5.49-5.45 8.41-5.16 2.83.26 4.39 9.12.69 11.57l-.95 5.12c1.45.62-6.98 12.49-7.25 12.92l.18.78-5.6 10.62.07.71c-13.36 25.26-35.45 38.58-52.43 60.66l-.1.9c-7.18 12.35-13.27 15.79-22.47 36.54 8.93 2.27.39 17.56 4.55 20.42 8.77 6.05 7.93 37.89 6.86 41.48l-4.36 5.76.48.16c-.08.09-3.55 2.97-2.39 2.97.55 0-2.47 3.44-5.02 4.95l-14.86 9.3c-.1.07-1.61 1.21-.47.93l-4.16 5.57-1.05-.29-.22 1.25c-2.93 1.88-6.02 4.46-9.44 8.23.74-1.12-2.33 2.5-1.48 4.16 3.02 5.93 5.16 15.66 5.91 16.25l-1.92 6.45c-.02.34 3.67-.55-1.54 5.42l-12.97 7.35c-.77-.72-5.65 5.14-5.78 5.85l1.81 1.78.79-1.36c.39 4.07-2.8 19.4-8.49 21.05l-13.65 19.29c-11.36-.24-19.12 19.17-30.71 22.56l-1.85 1.16c-1.36.05-2.67-.14-3.46 1.79l-8.93-.18-2.14 1.34c-7.64 2.14-13.98 3.13-22.78 8.73l-4.91-.82c.61-1.98-2.67-3.06-4.64-2.72-.88.16-2.23-.72-1.32-1.37l-3.54-4.61.73-.31c-.06-.25-3.28-.9-.88-2.39.45-.27 1.97.64 3.01-2.74-4.27-10.1-20.75-30.74-21.48-36.31-.24.27.78.56.42-.21-1.7-3.61-.81-6.61-1.66-10.01-1.54-6.12-2.19-7.81-2.63-14.62l.88-.88c-38.82-64.62 4.07-50.95-5.12-98.11-2.75-5.72-3.91-10.62-7.39-15.84 3.9.13-.56-1.26-.91-2.84l.78-1.36c-3.12-10.19-19.37-18.42-20.03-21.56-.16-.77 2.8 1.08 2.18.67-3.04-2.01-2.76-.71-.4-3.35l-1.25.56-.61.23c-.92.29 1.08-2.35.8-2.21l-1.75.9-1.96-3.65c-.21-.42 1.99-1.45 1.34-.52l2.77-5.62-.07-2.43.95 1.3.23-.52c1.08-.18 1.79.52 2.92-.57l-4.39-2.05c.41-.73 1.32.67 2.1.54.76-.13-.06-3.11-.05-3.3l.78-.83-2.19-.08c.08-.44 4.79-7.04 2.9-7.19 3.24-33.41-22.42-2.53-29.83-16.05l-.45-1.39 1.07-.29.35-1.05c-3.18-.43-3.34-1.12-7.07-4.64-6.75-.97-16.24 2.18-22.99 5.35-1.43 6.63-25.21 11.94-31.36 11.99l1.51-.29-.86-1.45-1.16 1.88-8.86.91c3.86.19-5.6 1.48-7.06 2.04-4.85 1.9-9.42 8.3-14.06 7.52-4.18-.7-8.49-1.35-11.99-3.49-8.39-5.13-13.67-8.24-23.09-12.38h-2.01l1.5-.92c.06-.01 3.2 1.14 3.2.08 0-3.14-6.8-2.17-6.71-5.32l.81.3 1.41-1.36-.98-.17-.69.84-.21-2.12 1.45-.4c-8.41-12.89-19.12-10.09-14.47-18.64l-1.46-.36-3.03 2.22c-1.25.63-.56-1.63-.63-1.63-2.84-.06-6.13-1.34-6.15-1.7-.19-2.53 3.82-4.76 4.15-7.38.17-1.32-2.65-.85-2.89-2.08-.28-1.39-2-3.24-4.86-6.28h-1.1c13.51-11.17 10.35-32.25 10.57-39.44.08-2.74-2.48-4.77-4.87-5.66-.66-.24-1.46 2.85-1.42 2.07.44-7.67 5.97-14.83 10.03-21.79.68-.74-.95-.89-.77-.19l7.1-7.31c1.52-3.77 1.44-7.1 3.72-11.36l6.36-4.76c2.92-12.41 19.15-11.56 28.09-29.29l-1.9-1.94c.09-4.41 5.11-12.46 4.85-13.86 3.52-5.65 12.94-11.34 18.37-14.43l5.71-11.99 3.57-1.61 7.22 4.16c5.52-3.58 11.15-2.65 16.58-2.29l4.7-2.59c2.43-8.94 42.79-15.6 49.89-18.78 4.83-2.15 4.6-1.05 8.73-2.02l2.13-.98-.61-.37 4.3-.06-.25.57c5.14-.3 9.09-3.45 13.98-5.38" fill="#88c540" fill-rule="evenodd"/></g><g clip-path="url(#n)"><path d="M931.47-44.09h627.54v632.08H931.47z" fill="url(#o)" transform="rotate(-21.29 1244.933 271.947)"/></g><g clip-path="url(#p)"><path d="M278.83 346.3c-2.49.48-4.59 0-6.04-1.2-2.29 6.94-10.64 6.86-12.88-1.05-1.88-6.6-4.85-8.17-10.96-6.85-25.08 4.9-50.66 37.03-53.8 59.04l-7.29 51.45c-2.94 20.93 13.11 41.12 35.55 36.9 7.49-2.22 13.78-7.43 18.79-16.58 2.87-5.26 8.07-5.64 10.9-2.7 1.14-1.53 2.87-2.93 4.18-3.2l32.53-6.45c5.26-1.04 8.84 2.32 8.1 7.64l-11.56 83.45c-.3 2.11-3.36 5.35-5.44 5.77l-32.61 6.45c-2.37.46-4.4.04-5.84-1.05-1.16 1.67-3.06 3.25-4.53 3.52-94.14 17.1-115.07-56.89-104.48-132.23 10.94-76.29 53.1-157.38 143.47-176.43 2.82-.59 5.16.08 6.63 1.64 1.01-1.87 3.26-3.98 4.84-4.31 1.52-.33 32.54-6.49 32.54-6.49 5.31-1.05 8.88 2.34 8.08 7.71l-12.25 82.87c-.3 2.06-3.39 5.29-5.44 5.69l-32.49 6.43z" fill="#fff"/><path d="m310 333.17-32.5 6.42 12.29-82.83c1.52-.32 32.47-6.46 32.47-6.46zM225.01 491.23c9.69-2.77 17.4-9.42 23.17-19.95l-11.48 83.43c-86.09 15.63-107.03-49.65-96.49-124.54 10.74-74.99 51.81-152.52 138.11-170.72l-11.84 82.75c-2.82-9.92-9.12-13.82-18.92-11.69-28.4 5.57-55.69 40.4-59.18 64.76l-7.29 51.48c-3.42 24.32 15.48 50.06 43.92 44.49M258.61 468.8l32.52-6.45-11.56 83.46s-31.06 6.15-32.61 6.44z" fill="#0054a6"/><g fill-rule="evenodd"><path d="M386.39 443.16c-3.6 9.06-8.06 19.19-8.06 19.19l11.9-2.41zm-19.97-78.17c.46-1 3.78-3.61 4.85-3.83l50.11-10.13c3.42-.69 7.22 1.76 8.01 5.16l35.21 152.82c.85 3.67-1.61 7.48-5.29 8.23l-47.99 9.69c-3.49.71-7.27-1.76-8.02-5.24l-2.27-10.44-48.56 9.81-7.17 16.27c-.46 1.03-3.77 3.71-4.89 3.94l-47.98 9.69c-6.76 1.37-10.45-3.3-7.55-9.55L366.43 365z" fill="#fff"/><path d="M485.92 342.67c.28-2.1 3.33-5.36 5.41-5.78l44.45-8.98c5.25-1.06 8.83 2.29 8.11 7.6l-14.91 111.5 50.17-10.14c6.42-1.29 10.06 3 7.73 9.12l-17.39 45.72c-.46 1.21-3.76 4-5.04 4.27l-92.41 18.67c-5.26 1.05-8.82-2.29-8.12-7.59l21.99-164.39z" fill="#fff"/><path d="M604.11 318.8c.28-2.1 3.32-5.37 5.41-5.79l44.44-8.98c5.25-1.06 8.83 2.29 8.11 7.6l-14.91 111.5 50.17-10.12c6.42-1.31 10.06 2.98 7.73 9.11l-17.39 45.72c-.46 1.21-3.75 4-5.03 4.26l-92.41 18.67c-5.26 1.07-8.83-2.28-8.12-7.59L604.1 318.8zM750.87 286.37c.28-2.12 3.34-5.38 5.44-5.79l44.91-8.96c5.24-1.04 8.81 2.3 8.11 7.6l-6.52 48.71 23.12-4.6 7.13-53.35c.29-2.12 3.34-5.37 5.43-5.79l44.92-8.95c5.24-1.05 8.81 2.3 8.1 7.6l-22.23 166.22c-.28 2.12-3.34 5.37-5.44 5.79l-44.91 8.95c-5.24 1.05-8.81-2.3-8.1-7.6l7.19-53.78-23.12 4.6-7.81 58.42c-.28 2.12-3.34 5.38-5.44 5.8l-44.91 8.95c-5.24 1.05-8.81-2.3-8.1-7.61l22.23-166.2zM985.3 288.4c-20.39 4.06-40.03 24.58-42.78 45.17-2.51 18.71 9.97 30.15 28.75 26.4 20.54-4.09 40.14-25.42 42.78-45.17 2.41-17.97-9.94-30.14-28.74-26.39m-17.37 129.73c-52.29 10.43-91.96-24.02-84.84-77.24 6.86-51.25 54.74-100.56 105.5-110.68 52.29-10.42 91.96 24.03 84.84 77.24-6.86 51.26-54.74 100.57-105.5 110.68M1128.04 327.78c-4.04 19.09-13.34 53.2-13.34 53.2-.42 1.58-3.65 4.59-5.24 4.91l-45.88 9.13c-5.93 1.18-9.52-2.66-7.91-8.5l46.84-171.12c.43-1.57 3.66-4.58 5.25-4.89l35.84-7.14c2.81-.56 6.73 1.63 7.73 4.33l16.59 44.78 32.7-58.05c.43-.76 3.75-3.16 4.61-3.33l35.84-7.16c4.51-.9 8.12 2.05 8.16 6.64l1.42 161.51c.03 2.73-2.81 6.21-5.49 6.75l-45.88 9.14c-4.47.89-8.09-2.03-8.16-6.6l-.57-43.27c-11.66 21.61-31.74 56.69-31.74 56.69-3.51 6.14-9.63 5.71-12.27-.85l-18.5-46.15zM1274.57 181.97c.29-2.12 3.34-5.38 5.44-5.8l92.21-18.37c4.42-.88 8.05 2.01 8.16 6.52l1.07 42.48c.06 2.82-2.74 6.32-5.5 6.86l-49.44 9.86-.41 3.01 26-5.18c5.24-1.05 8.81 2.29 8.09 7.6l-5.86 43.87c-.28 2.12-3.35 5.36-5.44 5.78l-30.57 6.1-.4 3.01 50.83-10.13c6.42-1.29 10.04 3.01 7.72 9.11l-17.57 46.2c-.46 1.22-3.77 4.01-5.05 4.27l-93.41 18.62c-5.24 1.05-8.81-2.3-8.11-7.6l22.23-166.21z" fill="#fff"/><path d="m398.46 465.25-31.67 6.4 21.46-48.77.47-.1zm-107.39 79 47.98-9.7 8.59-19.51 58.63-11.84 3.71 17.02 47.98-9.69-35.22-152.83-50.1 10.14-81.56 176.41zM470.71 507.97l92.41-18.67 17.39-45.72-59.57 12.02 16.18-121-44.43 8.98zM588.89 484.08l92.41-18.66 17.39-45.72-59.56 12.02 16.17-120.99-44.43 8.97zM735.41 453.49l44.92-8.96 8.46-63.25 37.27-7.43-8.46 63.26 44.91-8.95 22.24-166.23-44.91 8.96-7.79 58.18-37.27 7.43 7.79-58.18-44.92 8.95zM1020.8 315.7c-3.03 22.63-24.79 46.29-48.2 50.95-23.18 4.63-40-10.44-36.86-33.99 3.16-23.56 25.04-46.33 48.22-50.96 23.41-4.67 39.87 11.38 36.84 34m45.87-9.15c6.46-48.24-28.7-79.2-76.72-69.64-48.02 9.59-93.61 56.65-100.08 104.9-6.45 48.24 28.71 79.22 76.73 69.64s93.61-56.64 100.06-104.89M1062.25 388.34l45.87-9.16 19.16-70.32.49-.11 25.11 62.64 43.7-76.35.47-.09.9 66.33 45.87-9.15-1.42-161.5-35.84 7.15-39.94 70.87-21.7-58.58-35.83 7.15zM1259.11 349.08l93.42-18.62 17.56-46.2-60.21 12 2.32-17.31 35.37-7.04 5.86-43.87-35.36 7.06 2.32-17.32 54.23-10.82-1.07-42.47-92.21 18.38z" fill="#0054a6"/></g><path d="m228.96 622.54-126.77 43.58c-24.93 8.56-46.53 1.99-57.91-14.9 10.81 8.42 25.87 11.4 43.09 7.05l141.59-35.74z" fill="#0054a6"/></g></svg>