<svg width="245" height="240" viewBox="0 0 245 240" fill="none" xmlns="http://www.w3.org/2000/svg">
<path d="M116.5 224C56.0389 224 7 175.151 7 114.924C7.15229 54.6973 56.1912 6 116.5 6C176.961 6 226 54.849 226 115.076C226 175.151 176.961 224 116.5 224Z" fill="#4C86B7"/>
<path d="M206.516 224.127C196.356 224.381 182.893 202.794 188.354 200.381C193.815 197.968 231.283 195.302 235.347 195.302" fill="#FFC5C7"/>
<path d="M156.348 225.397C147.584 221.46 159.015 160.127 164.476 161.143C169.938 162.159 181.75 173.968 191.656 179.683C201.436 185.27 218.328 193.143 218.328 193.143C213.883 219.302 203.341 239.619 200.039 239.873" fill="white"/>
<path d="M224.678 205.714C213.502 203.048 195.212 177.905 187.084 166.603C178.955 155.302 163.841 134.984 160.666 133.206C157.491 131.429 150.378 130.413 144.155 120.254C138.058 110.095 146.06 88.6348 148.981 86.0952C151.902 83.5555 176.796 92.0634 179.717 96.3809C182.639 100.698 177.685 123.682 178.574 126.603C179.463 129.524 200.674 153.143 209.945 158.984C219.217 164.825 244.746 189.206 244.873 196.698" fill="#FFC5C7"/>
<path d="M161.936 103.111C159.015 101.714 158.253 95.1112 160.158 96.254C162.063 97.3969 165.238 97.3969 169.557 97.2699C173.875 97.2699 175.653 96.889 175.653 96.889C175.653 96.889 176.161 99.6826 176.034 102.095C176.161 102.095 164.857 104.508 161.936 103.111Z" fill="#FE8A8B"/>
<path d="M220.741 204.064C209.565 197.587 194.451 176.762 187.211 166.603C179.082 155.175 163.968 134.984 160.793 133.206C157.618 131.429 150.506 130.413 144.282 120.254C141.869 116.191 141.615 110.349 142.504 104.635C144.282 101.333 145.679 98.7937 145.679 98.7937L162.825 115.302C167.525 111.238 173.24 107.556 173.24 107.556L174.764 110.222C171.97 114.921 169.557 124.825 169.557 127.238C169.557 127.238 166.89 130.159 165.493 130.413C165.493 130.413 183.782 159.492 195.594 173.714C207.151 187.81 215.28 200.127 220.741 204.064Z" fill="#FE8A8B"/>
<path d="M178.193 106.286C177.939 107.937 160.92 122.667 159.142 124.444C159.015 124.571 157.618 124.825 157.364 124.444C152.792 120.508 133.105 84.5714 132.724 83.3016C132.343 82.0318 145.552 69.7143 149.489 66.4127C149.997 65.9048 152.283 66.2857 152.665 66.7937C156.729 72.7619 178.447 104 178.193 106.286Z" fill="#0C0835"/>
<path d="M176.415 106.286C176.161 107.936 159.142 122.667 157.364 124.444C155.586 126.095 131.327 84.6984 130.946 83.3015C130.565 82.0317 145.171 69.9682 149.235 66.6666C149.743 66.1587 150.505 66.2857 150.886 66.7936C154.824 72.7619 176.669 104 176.415 106.286Z" fill="#252384"/>
<path d="M173.494 103.873C173.24 105.397 157.364 119.238 155.713 120.889C154.062 122.413 131.327 83.6827 130.946 82.4128C130.692 81.27 144.282 69.9684 148.092 66.7938C148.6 66.4128 149.362 66.4128 149.616 66.9207C153.427 72.508 173.748 101.714 173.494 103.873Z" fill="#57AFF7"/>
<path d="M163.333 83.5557C160.666 81.9049 157.491 76.5715 157.11 74.7938C156.729 73.016 156.983 71.3652 158.38 70.9842C159.777 70.6033 164.222 76.3176 166.382 77.9684C168.541 79.6192 171.208 83.1747 170.065 85.5874C169.049 88.0001 164.095 86.9842 163.587 86.7303C163.206 86.3493 163.333 83.5557 163.333 83.5557Z" fill="#FFC5C7"/>
<path d="M157.618 71.4922C156.729 73.5239 162.19 81.7779 167.017 84.1906L165.239 86.2223C165.239 86.2223 164.476 86.0954 163.46 85.8414C163.333 84.9525 163.333 83.6827 163.333 83.6827C160.666 82.0319 157.491 76.6985 157.11 74.9208C156.856 73.3969 156.983 72.1271 157.618 71.4922Z" fill="#FE8A8B"/>
<path d="M169.43 91.9365C164.857 89.5238 161.301 89.7778 158.888 88.7619C156.475 87.746 155.967 83.9365 157.618 83.3016C159.269 82.6666 169.557 84.3174 172.097 85.4603C174.764 86.6031 176.034 92.0635 176.034 92.0635L169.43 91.9365Z" fill="#FFC5C7"/>
<path d="M167.398 89.1428C169.938 89.6507 170.827 89.1428 170.827 89.1428C170.7 90.1587 171.716 90.6666 172.732 92.0634L169.303 91.9365C164.731 89.5238 161.174 89.7777 158.761 88.7619C157.618 88.2539 156.983 87.238 156.729 86.2222C157.872 88.3809 164.858 88.6349 167.398 89.1428Z" fill="#FE8A8B"/>
<path d="M179.845 96.2541C177.431 99.5556 165.62 98.1588 163.206 97.7779C160.793 97.3969 159.269 95.8731 159.523 94.3493C160.031 91.3017 175.653 91.8096 177.05 92.3176C178.32 92.8255 179.845 96.2541 179.845 96.2541Z" fill="#FFC5C7"/>
<path d="M159.65 95.1111C161.301 96.7619 165.112 97.6508 169.43 98.0317C173.113 98.2857 175.272 98.1587 175.78 98.1587C171.335 98.9206 164.985 98.0317 163.333 97.7778C161.174 97.3968 159.904 96.3809 159.65 95.1111Z" fill="#FE8A8B"/>
<path d="M60.3292 221.841C58.6781 207.746 43.3101 168.635 46.1042 161.524C49.0255 154.413 75.8243 146.413 93.9866 137.27C112.276 128.127 124.215 143.111 124.215 143.111C149.362 155.937 153.554 155.429 164.349 161.27C175.145 167.111 171.97 228.19 171.208 237.714" fill="white"/>
<path d="M149.362 158.984C145.171 172.571 136.789 184.889 125.485 193.651C111.895 190.349 97.9238 184.254 86.7471 175.746C99.1939 184.889 112.784 192.635 127.39 197.968C139.837 187.937 147.076 174.73 149.362 158.984Z" fill="#DCEDFF"/>
<path d="M144.155 152.508C139.329 150.476 133.105 147.556 124.342 143.111C124.342 143.111 112.403 128.254 94.1136 137.27C87.7631 140.444 80.3966 143.492 73.4111 146.286C84.3339 164.698 101.861 179.175 122.183 186.032C132.978 177.778 140.599 165.714 144.155 152.508Z" fill="#FFC5C7"/>
<path d="M97.0347 111.492C96.7807 126.603 95.7646 137.016 92.4624 139.937C92.4624 139.937 98.1778 165.079 121.293 162.921C129.041 162.159 128.406 149.079 124.469 143.111L126.755 124.572L97.0347 111.492Z" fill="#FFC5C7"/>
<path d="M94.1135 137.27C96.1457 132.572 96.7807 123.556 97.0347 111.492L126.628 124.445L125.104 136.381C119.896 138.794 94.1135 137.27 94.1135 137.27Z" fill="#FE8A8B"/>
<path d="M63.7584 223.365C70.7439 209.778 73.4111 187.556 67.1877 176C60.9642 164.318 49.1524 160.127 46.2312 161.524C43.31 162.921 35.4355 181.079 28.0689 189.46C20.7024 197.841 0.635044 221.333 0 223.365" fill="white"/>
<path d="M128.406 112.889C126.882 106.667 126.882 100.318 126.501 93.8414C126.247 89.016 125.993 84.6985 121.674 81.9049C118.499 79.8731 114.562 79.3652 110.879 79.8731C100.845 81.143 98.6858 90.9207 99.4479 100.064C100.083 107.175 102.75 113.905 105.544 120.381C101.861 120.254 96.7807 118.349 94.6215 115.175C95.6376 119.238 97.4157 122.921 100.464 125.714C89.7952 125.587 79.8885 118.603 74.3001 109.206C68.7117 99.8096 66.8066 88.3811 67.4416 77.3334C68.2037 64.2541 72.268 51.1747 80.3965 41.016C96.6537 20.6985 128.025 18.4128 147.203 35.8096C153.808 41.7779 158.507 49.7779 160.92 58.5398C164.095 69.9684 163.968 82.2858 161.555 93.8414C160.539 98.6668 160.031 102.73 159.65 107.556C159.523 109.079 157.745 126.349 158.761 126.222C152.03 126.603 144.282 125.333 139.71 120.127C141.742 123.683 143.52 127.111 145.552 130.667C136.788 129.524 130.438 121.524 128.406 112.889Z" fill="#372D5B"/>
<path d="M93.3515 89.3968C90.3032 87.619 86.747 86.6032 83.9528 89.5238C79.8885 93.7143 85.7309 113.143 94.4945 108.444C94.4945 108.444 107.322 126.349 116.721 131.429C126.12 136.508 132.851 133.968 136.407 130.286C139.964 126.603 152.03 111.746 154.189 96C154.951 90.4127 154.189 79.3651 154.316 76.9524C154.824 69.7143 157.618 63.746 151.903 58.0317C146.06 52.3174 138.059 48.7619 129.93 48.5079C119.642 48.127 109.355 52.6984 102.623 60.4444C95.1296 68.9524 93.8595 78.6032 93.3515 89.3968Z" fill="#FFC5C7"/>
<path d="M85.4768 94.7303C86.2389 91.1747 89.2871 90.4128 91.5732 92.9525C93.8594 95.4922 94.2404 103.492 93.7324 104.762C93.0973 105.905 89.1601 105.905 88.398 103.365C87.636 100.952 89.9221 99.4287 92.2083 100.064C92.2083 100.064 92.8433 96.508 91.0652 94.2223C89.2871 91.9366 87.3819 92.8255 86.8739 93.3335C86.2389 93.9684 85.4768 94.7303 85.4768 94.7303Z" fill="#FE8A8B"/>
<path d="M109.99 78.9841C110.879 78.2222 111.768 77.4603 112.657 76.6984C113.673 76.0634 114.689 75.4285 115.705 74.9206C116.848 74.4127 117.864 73.9047 119.134 73.7777C120.277 73.6507 121.547 73.7777 122.563 74.2857V74.4127C121.928 74.6666 121.42 74.7936 120.912 74.9206L119.388 75.4285C118.372 75.6825 117.229 75.8095 116.213 76.1904C115.197 76.5714 114.181 76.9523 113.165 77.4603C112.149 77.9682 111.133 78.6031 110.117 79.1111L109.99 78.9841Z" fill="#3F1751"/>
<path d="M150.124 74.9207C149.108 74.4127 148.092 74.0318 147.076 73.7778C146.06 73.5238 144.917 73.3969 143.774 73.3969C142.631 73.3969 141.615 73.6508 140.472 73.6508C139.329 73.6508 138.313 73.6508 137.042 73.5238V73.3969C138.059 72.6349 139.202 72.254 140.472 72C141.615 71.7461 142.885 72 144.028 72.127C145.171 72.254 146.314 72.6349 147.33 73.0159C148.346 73.5238 149.362 74.0318 150.251 74.7937L150.124 74.9207Z" fill="#3F1751"/>
<path d="M120.785 85.3334C120.785 83.8096 120.023 82.6667 119.007 82.6667C118.118 82.7937 117.356 84.0636 117.483 85.5874C117.483 87.1112 118.245 88.2541 119.261 88.2541C120.15 88.2541 120.785 86.9842 120.785 85.3334Z" fill="#3F1751"/>
<path d="M145.044 83.4286C145.044 81.9048 144.409 80.762 143.647 80.762C142.885 80.8889 142.377 82.1588 142.377 83.6826C142.377 85.2064 143.012 86.3493 143.774 86.3493C144.409 86.3493 145.044 84.9524 145.044 83.4286Z" fill="#3F1751"/>
<path d="M128.279 100.317C130.438 101.714 133.486 101.714 135.772 100.19C135.518 101.333 135.01 102.476 133.867 102.984C132.724 103.365 131.454 103.238 130.438 102.857C129.295 102.349 129.041 101.206 128.279 100.317Z" fill="#FE8A8B"/>
<path d="M119.896 109.333C124.977 109.46 137.169 108.444 141.107 107.937C139.583 113.016 135.391 118.095 129.676 118.095C124.596 118.095 121.166 113.905 119.896 109.333Z" fill="#C31F2A"/>
<path d="M124.595 116.444C126.628 115.81 128.66 116.191 129.422 116.444C129.422 116.444 132.089 114.54 136.026 115.81C134.248 117.206 132.089 118.222 129.676 118.222C127.771 118.095 125.993 117.46 124.595 116.444Z" fill="#FB8384"/>
<path d="M137.678 112.127C132.597 113.778 127.009 113.27 122.182 111.492C122.182 110.73 122.055 109.968 122.055 109.206C127.009 109.079 135.137 108.444 139.456 108.063C139.075 109.46 138.44 110.857 137.678 112.127Z" fill="white"/>
<path d="M98.4317 72.6349C106.687 72.254 114.816 70.4762 122.436 67.3016C123.834 64 123.961 60.9524 124.215 57.2698C126.247 61.0794 127.517 65.2698 127.771 69.7143C132.597 69.4603 137.423 69.2063 142.25 68.8254C143.647 65.0159 143.774 61.0794 143.52 57.0159C145.171 60.8254 145.933 65.5238 146.568 69.7143C149.489 68.6984 153.173 70.2222 156.221 70.7302C160.031 62.3492 159.777 47.2381 151.775 40.8889C144.028 34.6667 130.565 33.0159 121.166 34.4127C100.972 37.3333 85.0958 53.9683 86.3659 74.7936C87.128 86.6032 92.9704 97.9048 101.607 106.159C96.5266 96 95.5105 83.5555 98.4317 72.6349Z" fill="#372D5B"/>
</svg>
